ISO-10303-21;
HEADER;
/* Generated by software containing ST-Developer
 * from STEP Tools, Inc. (www.steptools.com) 
 */
/* OPTION: using custom renumber hook */

FILE_DESCRIPTION(
/* description */ ('STEP AP242 Edition 2',
'CAx-IF Rec.Pracs.---Representation and Presentation of Product Manufa
cturing Information (PMI)---4.0---2014-10-13',
'CAx-IF Rec.Pracs.---3D Tessellated Geometry---0.4---2014-09-14','2;1',
'CAx-IF Rec.Pracs.---User Defined Attributes---1.5---2016-08-15'),
/* implementation_level */ '2;1');

FILE_NAME(
/* name */ 'Part Studio 1 - Bottom Case',
/* time_stamp */ '2026-06-25T15:51:43Z',
/* author */ (''),
/* organization */ (''),
/* preprocessor_version */ 'ST-DEVELOPER v20',
/* originating_system */ 'ONSHAPE BY PTC INC, 1.216',
/* authorisation */ '  ');

FILE_SCHEMA (('AP242_MANAGED_MODEL_BASED_3D_ENGINEERING_MIM_LF { 1 0 10303 442 3 1 4 }'));
ENDSEC;

DATA;
#10=SHAPE_REPRESENTATION_RELATIONSHIP('','',#663,#11);
#11=ADVANCED_BREP_SHAPE_REPRESENTATION('',(#661),#959);
#12=CYLINDRICAL_SURFACE('',#668,0.00385);
#13=CYLINDRICAL_SURFACE('',#693,0.00145);
#14=CYLINDRICAL_SURFACE('',#694,0.00145);
#15=CYLINDRICAL_SURFACE('',#695,0.00145);
#16=CYLINDRICAL_SURFACE('',#696,0.00385);
#17=CYLINDRICAL_SURFACE('',#700,0.00235);
#18=CYLINDRICAL_SURFACE('',#703,0.00235);
#19=CIRCLE('',#667,0.00145);
#20=CIRCLE('',#669,0.00385);
#21=CIRCLE('',#670,0.00385);
#22=CIRCLE('',#672,0.00235);
#23=CIRCLE('',#674,0.00145);
#24=CIRCLE('',#677,0.00145);
#25=CIRCLE('',#679,0.00145);
#26=CIRCLE('',#681,0.00145);
#27=CIRCLE('',#684,0.00145);
#28=CIRCLE('',#689,0.00385);
#29=CIRCLE('',#697,0.00385);
#30=CIRCLE('',#699,0.00235);
#31=CIRCLE('',#701,0.00235);
#32=CIRCLE('',#704,0.00235);
#33=ORIENTED_EDGE('',*,*,#145,.F.);
#34=ORIENTED_EDGE('',*,*,#146,.T.);
#35=ORIENTED_EDGE('',*,*,#147,.F.);
#36=ORIENTED_EDGE('',*,*,#148,.T.);
#37=ORIENTED_EDGE('',*,*,#149,.T.);
#38=ORIENTED_EDGE('',*,*,#150,.F.);
#39=ORIENTED_EDGE('',*,*,#151,.F.);
#40=ORIENTED_EDGE('',*,*,#152,.F.);
#41=ORIENTED_EDGE('',*,*,#153,.F.);
#42=ORIENTED_EDGE('',*,*,#154,.F.);
#43=ORIENTED_EDGE('',*,*,#155,.F.);
#44=ORIENTED_EDGE('',*,*,#156,.F.);
#45=ORIENTED_EDGE('',*,*,#157,.F.);
#46=ORIENTED_EDGE('',*,*,#158,.F.);
#47=ORIENTED_EDGE('',*,*,#159,.F.);
#48=ORIENTED_EDGE('',*,*,#160,.T.);
#49=ORIENTED_EDGE('',*,*,#161,.T.);
#50=ORIENTED_EDGE('',*,*,#152,.T.);
#51=ORIENTED_EDGE('',*,*,#162,.T.);
#52=ORIENTED_EDGE('',*,*,#163,.F.);
#53=ORIENTED_EDGE('',*,*,#164,.F.);
#54=ORIENTED_EDGE('',*,*,#147,.T.);
#55=ORIENTED_EDGE('',*,*,#165,.T.);
#56=ORIENTED_EDGE('',*,*,#166,.F.);
#57=ORIENTED_EDGE('',*,*,#167,.T.);
#58=ORIENTED_EDGE('',*,*,#168,.F.);
#59=ORIENTED_EDGE('',*,*,#166,.T.);
#60=ORIENTED_EDGE('',*,*,#169,.F.);
#61=ORIENTED_EDGE('',*,*,#170,.F.);
#62=ORIENTED_EDGE('',*,*,#171,.F.);
#63=ORIENTED_EDGE('',*,*,#172,.F.);
#64=ORIENTED_EDGE('',*,*,#145,.T.);
#65=ORIENTED_EDGE('',*,*,#173,.T.);
#66=ORIENTED_EDGE('',*,*,#174,.T.);
#67=ORIENTED_EDGE('',*,*,#175,.F.);
#68=ORIENTED_EDGE('',*,*,#154,.T.);
#69=ORIENTED_EDGE('',*,*,#175,.T.);
#70=ORIENTED_EDGE('',*,*,#176,.T.);
#71=ORIENTED_EDGE('',*,*,#177,.F.);
#72=ORIENTED_EDGE('',*,*,#155,.T.);
#73=ORIENTED_EDGE('',*,*,#178,.F.);
#74=ORIENTED_EDGE('',*,*,#177,.T.);
#75=ORIENTED_EDGE('',*,*,#179,.T.);
#76=ORIENTED_EDGE('',*,*,#180,.F.);
#77=ORIENTED_EDGE('',*,*,#156,.T.);
#78=ORIENTED_EDGE('',*,*,#181,.F.);
#79=ORIENTED_EDGE('',*,*,#182,.F.);
#80=ORIENTED_EDGE('',*,*,#173,.F.);
#81=ORIENTED_EDGE('',*,*,#158,.T.);
#82=ORIENTED_EDGE('',*,*,#183,.T.);
#83=ORIENTED_EDGE('',*,*,#184,.F.);
#84=ORIENTED_EDGE('',*,*,#185,.T.);
#85=ORIENTED_EDGE('',*,*,#186,.F.);
#86=ORIENTED_EDGE('',*,*,#148,.F.);
#87=ORIENTED_EDGE('',*,*,#164,.T.);
#88=ORIENTED_EDGE('',*,*,#187,.T.);
#89=ORIENTED_EDGE('',*,*,#188,.F.);
#90=ORIENTED_EDGE('',*,*,#149,.F.);
#91=ORIENTED_EDGE('',*,*,#186,.T.);
#92=ORIENTED_EDGE('',*,*,#189,.F.);
#93=ORIENTED_EDGE('',*,*,#190,.F.);
#94=ORIENTED_EDGE('',*,*,#191,.F.);
#95=ORIENTED_EDGE('',*,*,#150,.T.);
#96=ORIENTED_EDGE('',*,*,#188,.T.);
#97=ORIENTED_EDGE('',*,*,#192,.F.);
#98=ORIENTED_EDGE('',*,*,#162,.F.);
#99=ORIENTED_EDGE('',*,*,#151,.T.);
#100=ORIENTED_EDGE('',*,*,#191,.T.);
#101=ORIENTED_EDGE('',*,*,#193,.F.);
#102=ORIENTED_EDGE('',*,*,#183,.F.);
#103=ORIENTED_EDGE('',*,*,#157,.T.);
#104=ORIENTED_EDGE('',*,*,#180,.T.);
#105=ORIENTED_EDGE('',*,*,#163,.T.);
#106=ORIENTED_EDGE('',*,*,#192,.T.);
#107=ORIENTED_EDGE('',*,*,#190,.T.);
#108=ORIENTED_EDGE('',*,*,#187,.F.);
#109=ORIENTED_EDGE('',*,*,#185,.F.);
#110=ORIENTED_EDGE('',*,*,#194,.F.);
#111=ORIENTED_EDGE('',*,*,#167,.F.);
#112=ORIENTED_EDGE('',*,*,#174,.F.);
#113=ORIENTED_EDGE('',*,*,#182,.T.);
#114=ORIENTED_EDGE('',*,*,#193,.T.);
#115=ORIENTED_EDGE('',*,*,#179,.F.);
#116=ORIENTED_EDGE('',*,*,#176,.F.);
#117=ORIENTED_EDGE('',*,*,#161,.F.);
#118=ORIENTED_EDGE('',*,*,#195,.F.);
#119=ORIENTED_EDGE('',*,*,#170,.T.);
#120=ORIENTED_EDGE('',*,*,#153,.T.);
#121=ORIENTED_EDGE('',*,*,#160,.F.);
#122=ORIENTED_EDGE('',*,*,#196,.F.);
#123=ORIENTED_EDGE('',*,*,#171,.T.);
#124=ORIENTED_EDGE('',*,*,#195,.T.);
#125=ORIENTED_EDGE('',*,*,#165,.F.);
#126=ORIENTED_EDGE('',*,*,#146,.F.);
#127=ORIENTED_EDGE('',*,*,#172,.T.);
#128=ORIENTED_EDGE('',*,*,#196,.T.);
#129=ORIENTED_EDGE('',*,*,#178,.T.);
#130=ORIENTED_EDGE('',*,*,#189,.T.);
#131=ORIENTED_EDGE('',*,*,#181,.T.);
#132=ORIENTED_EDGE('',*,*,#184,.T.);
#133=ORIENTED_EDGE('',*,*,#169,.T.);
#134=ORIENTED_EDGE('',*,*,#159,.T.);
#135=ORIENTED_EDGE('',*,*,#197,.F.);
#136=ORIENTED_EDGE('',*,*,#194,.T.);
#137=ORIENTED_EDGE('',*,*,#198,.F.);
#138=ORIENTED_EDGE('',*,*,#197,.T.);
#139=ORIENTED_EDGE('',*,*,#199,.F.);
#140=ORIENTED_EDGE('',*,*,#198,.T.);
#141=ORIENTED_EDGE('',*,*,#199,.T.);
#142=ORIENTED_EDGE('',*,*,#200,.F.);
#143=ORIENTED_EDGE('',*,*,#168,.T.);
#144=ORIENTED_EDGE('',*,*,#200,.T.);
#145=EDGE_CURVE('',#201,#202,#243,.T.);
#146=EDGE_CURVE('',#201,#203,#244,.T.);
#147=EDGE_CURVE('',#204,#203,#245,.T.);
#148=EDGE_CURVE('',#204,#205,#246,.T.);
#149=EDGE_CURVE('',#205,#206,#247,.T.);
#150=EDGE_CURVE('',#207,#206,#248,.T.);
#151=EDGE_CURVE('',#208,#207,#249,.T.);
#152=EDGE_CURVE('',#209,#208,#250,.T.);
#153=EDGE_CURVE('',#210,#209,#251,.T.);
#154=EDGE_CURVE('',#211,#210,#252,.T.);
#155=EDGE_CURVE('',#212,#211,#253,.T.);
#156=EDGE_CURVE('',#213,#212,#254,.T.);
#157=EDGE_CURVE('',#214,#213,#255,.T.);
#158=EDGE_CURVE('',#202,#214,#256,.T.);
#159=EDGE_CURVE('',#215,#215,#19,.T.);
#160=EDGE_CURVE('',#216,#217,#257,.T.);
#161=EDGE_CURVE('',#217,#209,#258,.T.);
#162=EDGE_CURVE('',#208,#218,#259,.T.);
#163=EDGE_CURVE('',#219,#218,#260,.T.);
#164=EDGE_CURVE('',#204,#219,#261,.T.);
#165=EDGE_CURVE('',#203,#216,#262,.T.);
#166=EDGE_CURVE('',#220,#220,#20,.T.);
#167=EDGE_CURVE('',#221,#221,#21,.T.);
#168=EDGE_CURVE('',#222,#222,#22,.T.);
#169=EDGE_CURVE('',#223,#223,#23,.T.);
#170=EDGE_CURVE('',#224,#210,#263,.T.);
#171=EDGE_CURVE('',#225,#224,#264,.T.);
#172=EDGE_CURVE('',#201,#225,#265,.T.);
#173=EDGE_CURVE('',#202,#226,#266,.T.);
#174=EDGE_CURVE('',#226,#227,#267,.T.);
#175=EDGE_CURVE('',#211,#227,#268,.T.);
#176=EDGE_CURVE('',#227,#228,#269,.T.);
#177=EDGE_CURVE('',#212,#228,#270,.T.);
#178=EDGE_CURVE('',#229,#229,#24,.T.);
#179=EDGE_CURVE('',#228,#230,#271,.T.);
#180=EDGE_CURVE('',#213,#230,#272,.T.);
#181=EDGE_CURVE('',#231,#231,#25,.T.);
#182=EDGE_CURVE('',#226,#232,#273,.T.);
#183=EDGE_CURVE('',#214,#232,#274,.T.);
#184=EDGE_CURVE('',#233,#233,#26,.T.);
#185=EDGE_CURVE('',#219,#234,#275,.T.);
#186=EDGE_CURVE('',#205,#234,#276,.T.);
#187=EDGE_CURVE('',#234,#235,#277,.T.);
#188=EDGE_CURVE('',#206,#235,#278,.T.);
#189=EDGE_CURVE('',#236,#236,#27,.T.);
#190=EDGE_CURVE('',#237,#235,#279,.T.);
#191=EDGE_CURVE('',#207,#237,#280,.T.);
#192=EDGE_CURVE('',#218,#237,#281,.T.);
#193=EDGE_CURVE('',#232,#230,#282,.T.);
#194=EDGE_CURVE('',#238,#238,#28,.T.);
#195=EDGE_CURVE('',#224,#217,#283,.T.);
#196=EDGE_CURVE('',#225,#216,#284,.T.);
#197=EDGE_CURVE('',#239,#239,#29,.T.);
#198=EDGE_CURVE('',#240,#240,#30,.T.);
#199=EDGE_CURVE('',#241,#241,#31,.T.);
#200=EDGE_CURVE('',#242,#242,#32,.T.);
#201=VERTEX_POINT('',#835);
#202=VERTEX_POINT('',#836);
#203=VERTEX_POINT('',#838);
#204=VERTEX_POINT('',#840);
#205=VERTEX_POINT('',#842);
#206=VERTEX_POINT('',#844);
#207=VERTEX_POINT('',#846);
#208=VERTEX_POINT('',#848);
#209=VERTEX_POINT('',#850);
#210=VERTEX_POINT('',#852);
#211=VERTEX_POINT('',#854);
#212=VERTEX_POINT('',#856);
#213=VERTEX_POINT('',#858);
#214=VERTEX_POINT('',#860);
#215=VERTEX_POINT('',#864);
#216=VERTEX_POINT('',#866);
#217=VERTEX_POINT('',#867);
#218=VERTEX_POINT('',#870);
#219=VERTEX_POINT('',#872);
#220=VERTEX_POINT('',#877);
#221=VERTEX_POINT('',#879);
#222=VERTEX_POINT('',#882);
#223=VERTEX_POINT('',#885);
#224=VERTEX_POINT('',#887);
#225=VERTEX_POINT('',#889);
#226=VERTEX_POINT('',#892);
#227=VERTEX_POINT('',#894);
#228=VERTEX_POINT('',#898);
#229=VERTEX_POINT('',#902);
#230=VERTEX_POINT('',#904);
#231=VERTEX_POINT('',#908);
#232=VERTEX_POINT('',#910);
#233=VERTEX_POINT('',#914);
#234=VERTEX_POINT('',#916);
#235=VERTEX_POINT('',#920);
#236=VERTEX_POINT('',#924);
#237=VERTEX_POINT('',#926);
#238=VERTEX_POINT('',#935);
#239=VERTEX_POINT('',#946);
#240=VERTEX_POINT('',#949);
#241=VERTEX_POINT('',#952);
#242=VERTEX_POINT('',#956);
#243=LINE('',#834,#285);
#244=LINE('',#837,#286);
#245=LINE('',#839,#287);
#246=LINE('',#841,#288);
#247=LINE('',#843,#289);
#248=LINE('',#845,#290);
#249=LINE('',#847,#291);
#250=LINE('',#849,#292);
#251=LINE('',#851,#293);
#252=LINE('',#853,#294);
#253=LINE('',#855,#295);
#254=LINE('',#857,#296);
#255=LINE('',#859,#297);
#256=LINE('',#861,#298);
#257=LINE('',#865,#299);
#258=LINE('',#868,#300);
#259=LINE('',#869,#301);
#260=LINE('',#871,#302);
#261=LINE('',#873,#303);
#262=LINE('',#874,#304);
#263=LINE('',#886,#305);
#264=LINE('',#888,#306);
#265=LINE('',#890,#307);
#266=LINE('',#891,#308);
#267=LINE('',#893,#309);
#268=LINE('',#895,#310);
#269=LINE('',#897,#311);
#270=LINE('',#899,#312);
#271=LINE('',#903,#313);
#272=LINE('',#905,#314);
#273=LINE('',#909,#315);
#274=LINE('',#911,#316);
#275=LINE('',#915,#317);
#276=LINE('',#917,#318);
#277=LINE('',#919,#319);
#278=LINE('',#921,#320);
#279=LINE('',#925,#321);
#280=LINE('',#927,#322);
#281=LINE('',#929,#323);
#282=LINE('',#931,#324);
#283=LINE('',#937,#325);
#284=LINE('',#939,#326);
#285=VECTOR('',#710,1.);
#286=VECTOR('',#711,1.);
#287=VECTOR('',#712,1.);
#288=VECTOR('',#713,1.);
#289=VECTOR('',#714,1.);
#290=VECTOR('',#715,1.);
#291=VECTOR('',#716,1.);
#292=VECTOR('',#717,1.);
#293=VECTOR('',#718,1.);
#294=VECTOR('',#719,1.);
#295=VECTOR('',#720,1.);
#296=VECTOR('',#721,1.);
#297=VECTOR('',#722,1.);
#298=VECTOR('',#723,1.);
#299=VECTOR('',#728,1.);
#300=VECTOR('',#729,1.);
#301=VECTOR('',#730,1.);
#302=VECTOR('',#731,1.);
#303=VECTOR('',#732,1.);
#304=VECTOR('',#733,1.);
#305=VECTOR('',#748,1.);
#306=VECTOR('',#749,1.);
#307=VECTOR('',#750,1.);
#308=VECTOR('',#751,1.);
#309=VECTOR('',#752,1.);
#310=VECTOR('',#753,1.);
#311=VECTOR('',#756,1.);
#312=VECTOR('',#757,1.);
#313=VECTOR('',#762,1.);
#314=VECTOR('',#763,1.);
#315=VECTOR('',#768,1.);
#316=VECTOR('',#769,1.);
#317=VECTOR('',#774,1.);
#318=VECTOR('',#775,1.);
#319=VECTOR('',#778,1.);
#320=VECTOR('',#779,1.);
#321=VECTOR('',#784,1.);
#322=VECTOR('',#785,1.);
#323=VECTOR('',#788,1.);
#324=VECTOR('',#791,1.);
#325=VECTOR('',#800,1.);
#326=VECTOR('',#803,1.);
#327=EDGE_LOOP('',(#33,#34,#35,#36,#37,#38,#39,#40,#41,#42,#43,#44,#45,
#46));
#328=EDGE_LOOP('',(#47));
#329=EDGE_LOOP('',(#48,#49,#50,#51,#52,#53,#54,#55));
#330=EDGE_LOOP('',(#56));
#331=EDGE_LOOP('',(#57));
#332=EDGE_LOOP('',(#58));
#333=EDGE_LOOP('',(#59));
#334=EDGE_LOOP('',(#60));
#335=EDGE_LOOP('',(#61,#62,#63,#64,#65,#66,#67,#68));
#336=EDGE_LOOP('',(#69,#70,#71,#72));
#337=EDGE_LOOP('',(#73));
#338=EDGE_LOOP('',(#74,#75,#76,#77));
#339=EDGE_LOOP('',(#78));
#340=EDGE_LOOP('',(#79,#80,#81,#82));
#341=EDGE_LOOP('',(#83));
#342=EDGE_LOOP('',(#84,#85,#86,#87));
#343=EDGE_LOOP('',(#88,#89,#90,#91));
#344=EDGE_LOOP('',(#92));
#345=EDGE_LOOP('',(#93,#94,#95,#96));
#346=EDGE_LOOP('',(#97,#98,#99,#100));
#347=EDGE_LOOP('',(#101,#102,#103,#104));
#348=EDGE_LOOP('',(#105,#106,#107,#108,#109));
#349=EDGE_LOOP('',(#110));
#350=EDGE_LOOP('',(#111));
#351=EDGE_LOOP('',(#112,#113,#114,#115,#116));
#352=EDGE_LOOP('',(#117,#118,#119,#120));
#353=EDGE_LOOP('',(#121,#122,#123,#124));
#354=EDGE_LOOP('',(#125,#126,#127,#128));
#355=EDGE_LOOP('',(#129));
#356=EDGE_LOOP('',(#130));
#357=EDGE_LOOP('',(#131));
#358=EDGE_LOOP('',(#132));
#359=EDGE_LOOP('',(#133));
#360=EDGE_LOOP('',(#134));
#361=EDGE_LOOP('',(#135));
#362=EDGE_LOOP('',(#136));
#363=EDGE_LOOP('',(#137));
#364=EDGE_LOOP('',(#138));
#365=EDGE_LOOP('',(#139));
#366=EDGE_LOOP('',(#140));
#367=EDGE_LOOP('',(#141));
#368=EDGE_LOOP('',(#142));
#369=EDGE_LOOP('',(#143));
#370=EDGE_LOOP('',(#144));
#371=FACE_BOUND('',#327,.T.);
#372=FACE_BOUND('',#328,.T.);
#373=FACE_BOUND('',#329,.T.);
#374=FACE_BOUND('',#330,.T.);
#375=FACE_BOUND('',#331,.T.);
#376=FACE_BOUND('',#332,.T.);
#377=FACE_BOUND('',#333,.T.);
#378=FACE_BOUND('',#334,.T.);
#379=FACE_BOUND('',#335,.T.);
#380=FACE_BOUND('',#336,.T.);
#381=FACE_BOUND('',#337,.T.);
#382=FACE_BOUND('',#338,.T.);
#383=FACE_BOUND('',#339,.T.);
#384=FACE_BOUND('',#340,.T.);
#385=FACE_BOUND('',#341,.T.);
#386=FACE_BOUND('',#342,.T.);
#387=FACE_BOUND('',#343,.T.);
#388=FACE_BOUND('',#344,.T.);
#389=FACE_BOUND('',#345,.T.);
#390=FACE_BOUND('',#346,.T.);
#391=FACE_BOUND('',#347,.T.);
#392=FACE_BOUND('',#348,.T.);
#393=FACE_BOUND('',#349,.T.);
#394=FACE_BOUND('',#350,.T.);
#395=FACE_BOUND('',#351,.T.);
#396=FACE_BOUND('',#352,.T.);
#397=FACE_BOUND('',#353,.T.);
#398=FACE_BOUND('',#354,.T.);
#399=FACE_BOUND('',#355,.T.);
#400=FACE_BOUND('',#356,.T.);
#401=FACE_BOUND('',#357,.T.);
#402=FACE_BOUND('',#358,.T.);
#403=FACE_BOUND('',#359,.T.);
#404=FACE_BOUND('',#360,.T.);
#405=FACE_BOUND('',#361,.T.);
#406=FACE_BOUND('',#362,.T.);
#407=FACE_BOUND('',#363,.T.);
#408=FACE_BOUND('',#364,.T.);
#409=FACE_BOUND('',#365,.T.);
#410=FACE_BOUND('',#366,.T.);
#411=FACE_BOUND('',#367,.T.);
#412=FACE_BOUND('',#368,.T.);
#413=FACE_BOUND('',#369,.T.);
#414=FACE_BOUND('',#370,.T.);
#415=PLANE('',#665);
#416=PLANE('',#666);
#417=PLANE('',#671);
#418=PLANE('',#673);
#419=PLANE('',#675);
#420=PLANE('',#676);
#421=PLANE('',#678);
#422=PLANE('',#680);
#423=PLANE('',#682);
#424=PLANE('',#683);
#425=PLANE('',#685);
#426=PLANE('',#686);
#427=PLANE('',#687);
#428=PLANE('',#688);
#429=PLANE('',#690);
#430=PLANE('',#691);
#431=PLANE('',#692);
#432=PLANE('',#698);
#433=PLANE('',#702);
#434=PLANE('',#705);
#435=OVER_RIDING_STYLED_ITEM('',(#492),#462,#490);
#436=OVER_RIDING_STYLED_ITEM('',(#493),#463,#490);
#437=OVER_RIDING_STYLED_ITEM('',(#494),#464,#490);
#438=OVER_RIDING_STYLED_ITEM('',(#495),#465,#490);
#439=OVER_RIDING_STYLED_ITEM('',(#496),#466,#490);
#440=OVER_RIDING_STYLED_ITEM('',(#497),#467,#490);
#441=OVER_RIDING_STYLED_ITEM('',(#498),#468,#490);
#442=OVER_RIDING_STYLED_ITEM('',(#499),#469,#490);
#443=OVER_RIDING_STYLED_ITEM('',(#500),#470,#490);
#444=OVER_RIDING_STYLED_ITEM('',(#501),#471,#490);
#445=OVER_RIDING_STYLED_ITEM('',(#502),#472,#490);
#446=OVER_RIDING_STYLED_ITEM('',(#503),#473,#490);
#447=OVER_RIDING_STYLED_ITEM('',(#504),#474,#490);
#448=OVER_RIDING_STYLED_ITEM('',(#505),#475,#490);
#449=OVER_RIDING_STYLED_ITEM('',(#506),#476,#490);
#450=OVER_RIDING_STYLED_ITEM('',(#507),#477,#490);
#451=OVER_RIDING_STYLED_ITEM('',(#508),#478,#490);
#452=OVER_RIDING_STYLED_ITEM('',(#509),#479,#490);
#453=OVER_RIDING_STYLED_ITEM('',(#510),#480,#490);
#454=OVER_RIDING_STYLED_ITEM('',(#511),#481,#490);
#455=OVER_RIDING_STYLED_ITEM('',(#512),#482,#490);
#456=OVER_RIDING_STYLED_ITEM('',(#513),#483,#490);
#457=OVER_RIDING_STYLED_ITEM('',(#514),#484,#490);
#458=OVER_RIDING_STYLED_ITEM('',(#515),#485,#490);
#459=OVER_RIDING_STYLED_ITEM('',(#516),#486,#490);
#460=OVER_RIDING_STYLED_ITEM('',(#517),#487,#490);
#461=OVER_RIDING_STYLED_ITEM('',(#518),#488,#490);
#462=ADVANCED_FACE('Face appearance 18',(#371),#415,.T.);
#463=ADVANCED_FACE('Face appearance 18',(#372,#373),#416,.T.);
#464=ADVANCED_FACE('Face appearance 18',(#374,#375),#12,.T.);
#465=ADVANCED_FACE('Face appearance 18',(#376,#377),#417,.T.);
#466=ADVANCED_FACE('Face appearance 18',(#378,#379),#418,.T.);
#467=ADVANCED_FACE('Face appearance 18',(#380),#419,.T.);
#468=ADVANCED_FACE('Face appearance 18',(#381,#382),#420,.T.);
#469=ADVANCED_FACE('Face appearance 18',(#383,#384),#421,.T.);
#470=ADVANCED_FACE('Face appearance 18',(#385,#386),#422,.F.);
#471=ADVANCED_FACE('Face appearance 18',(#387),#423,.F.);
#472=ADVANCED_FACE('Face appearance 18',(#388,#389),#424,.T.);
#473=ADVANCED_FACE('Face appearance 18',(#390),#425,.T.);
#474=ADVANCED_FACE('Face appearance 18',(#391),#426,.T.);
#475=ADVANCED_FACE('Face appearance 18',(#392),#427,.F.);
#476=ADVANCED_FACE('Face appearance 18',(#393,#394,#395),#428,.T.);
#477=ADVANCED_FACE('Face appearance 18',(#396),#429,.T.);
#478=ADVANCED_FACE('Face appearance 18',(#397),#430,.T.);
#479=ADVANCED_FACE('Face appearance 18',(#398),#431,.T.);
#480=ADVANCED_FACE('Face appearance 18',(#399,#400),#13,.F.);
#481=ADVANCED_FACE('Face appearance 18',(#401,#402),#14,.F.);
#482=ADVANCED_FACE('Face appearance 18',(#403,#404),#15,.F.);
#483=ADVANCED_FACE('Face appearance 18',(#405,#406),#16,.T.);
#484=ADVANCED_FACE('Face appearance 18',(#407,#408),#432,.T.);
#485=ADVANCED_FACE('Face appearance 18',(#409,#410),#17,.F.);
#486=ADVANCED_FACE('Face appearance 18',(#411),#433,.T.);
#487=ADVANCED_FACE('Face appearance 18',(#412,#413),#18,.F.);
#488=ADVANCED_FACE('Face appearance 18',(#414),#434,.T.);
#489=CLOSED_SHELL('',(#462,#463,#464,#465,#466,#467,#468,#469,#470,#471,
#472,#473,#474,#475,#476,#477,#478,#479,#480,#481,#482,#483,#484,#485,#486,
#487,#488));
#490=STYLED_ITEM('',(#491),#661);
#491=PRESENTATION_STYLE_ASSIGNMENT((#519));
#492=PRESENTATION_STYLE_ASSIGNMENT((#520));
#493=PRESENTATION_STYLE_ASSIGNMENT((#521));
#494=PRESENTATION_STYLE_ASSIGNMENT((#522));
#495=PRESENTATION_STYLE_ASSIGNMENT((#523));
#496=PRESENTATION_STYLE_ASSIGNMENT((#524));
#497=PRESENTATION_STYLE_ASSIGNMENT((#525));
#498=PRESENTATION_STYLE_ASSIGNMENT((#526));
#499=PRESENTATION_STYLE_ASSIGNMENT((#527));
#500=PRESENTATION_STYLE_ASSIGNMENT((#528));
#501=PRESENTATION_STYLE_ASSIGNMENT((#529));
#502=PRESENTATION_STYLE_ASSIGNMENT((#530));
#503=PRESENTATION_STYLE_ASSIGNMENT((#531));
#504=PRESENTATION_STYLE_ASSIGNMENT((#532));
#505=PRESENTATION_STYLE_ASSIGNMENT((#533));
#506=PRESENTATION_STYLE_ASSIGNMENT((#534));
#507=PRESENTATION_STYLE_ASSIGNMENT((#535));
#508=PRESENTATION_STYLE_ASSIGNMENT((#536));
#509=PRESENTATION_STYLE_ASSIGNMENT((#537));
#510=PRESENTATION_STYLE_ASSIGNMENT((#538));
#511=PRESENTATION_STYLE_ASSIGNMENT((#539));
#512=PRESENTATION_STYLE_ASSIGNMENT((#540));
#513=PRESENTATION_STYLE_ASSIGNMENT((#541));
#514=PRESENTATION_STYLE_ASSIGNMENT((#542));
#515=PRESENTATION_STYLE_ASSIGNMENT((#543));
#516=PRESENTATION_STYLE_ASSIGNMENT((#544));
#517=PRESENTATION_STYLE_ASSIGNMENT((#545));
#518=PRESENTATION_STYLE_ASSIGNMENT((#546));
#519=SURFACE_STYLE_USAGE(.BOTH.,#547);
#520=SURFACE_STYLE_USAGE(.BOTH.,#548);
#521=SURFACE_STYLE_USAGE(.BOTH.,#549);
#522=SURFACE_STYLE_USAGE(.BOTH.,#550);
#523=SURFACE_STYLE_USAGE(.BOTH.,#551);
#524=SURFACE_STYLE_USAGE(.BOTH.,#552);
#525=SURFACE_STYLE_USAGE(.BOTH.,#553);
#526=SURFACE_STYLE_USAGE(.BOTH.,#554);
#527=SURFACE_STYLE_USAGE(.BOTH.,#555);
#528=SURFACE_STYLE_USAGE(.BOTH.,#556);
#529=SURFACE_STYLE_USAGE(.BOTH.,#557);
#530=SURFACE_STYLE_USAGE(.BOTH.,#558);
#531=SURFACE_STYLE_USAGE(.BOTH.,#559);
#532=SURFACE_STYLE_USAGE(.BOTH.,#560);
#533=SURFACE_STYLE_USAGE(.BOTH.,#561);
#534=SURFACE_STYLE_USAGE(.BOTH.,#562);
#535=SURFACE_STYLE_USAGE(.BOTH.,#563);
#536=SURFACE_STYLE_USAGE(.BOTH.,#564);
#537=SURFACE_STYLE_USAGE(.BOTH.,#565);
#538=SURFACE_STYLE_USAGE(.BOTH.,#566);
#539=SURFACE_STYLE_USAGE(.BOTH.,#567);
#540=SURFACE_STYLE_USAGE(.BOTH.,#568);
#541=SURFACE_STYLE_USAGE(.BOTH.,#569);
#542=SURFACE_STYLE_USAGE(.BOTH.,#570);
#543=SURFACE_STYLE_USAGE(.BOTH.,#571);
#544=SURFACE_STYLE_USAGE(.BOTH.,#572);
#545=SURFACE_STYLE_USAGE(.BOTH.,#573);
#546=SURFACE_STYLE_USAGE(.BOTH.,#574);
#547=SURFACE_SIDE_STYLE('',(#575));
#548=SURFACE_SIDE_STYLE('',(#576));
#549=SURFACE_SIDE_STYLE('',(#577));
#550=SURFACE_SIDE_STYLE('',(#578));
#551=SURFACE_SIDE_STYLE('',(#579));
#552=SURFACE_SIDE_STYLE('',(#580));
#553=SURFACE_SIDE_STYLE('',(#581));
#554=SURFACE_SIDE_STYLE('',(#582));
#555=SURFACE_SIDE_STYLE('',(#583));
#556=SURFACE_SIDE_STYLE('',(#584));
#557=SURFACE_SIDE_STYLE('',(#585));
#558=SURFACE_SIDE_STYLE('',(#586));
#559=SURFACE_SIDE_STYLE('',(#587));
#560=SURFACE_SIDE_STYLE('',(#588));
#561=SURFACE_SIDE_STYLE('',(#589));
#562=SURFACE_SIDE_STYLE('',(#590));
#563=SURFACE_SIDE_STYLE('',(#591));
#564=SURFACE_SIDE_STYLE('',(#592));
#565=SURFACE_SIDE_STYLE('',(#593));
#566=SURFACE_SIDE_STYLE('',(#594));
#567=SURFACE_SIDE_STYLE('',(#595));
#568=SURFACE_SIDE_STYLE('',(#596));
#569=SURFACE_SIDE_STYLE('',(#597));
#570=SURFACE_SIDE_STYLE('',(#598));
#571=SURFACE_SIDE_STYLE('',(#599));
#572=SURFACE_SIDE_STYLE('',(#600));
#573=SURFACE_SIDE_STYLE('',(#601));
#574=SURFACE_SIDE_STYLE('',(#602));
#575=SURFACE_STYLE_FILL_AREA(#603);
#576=SURFACE_STYLE_FILL_AREA(#604);
#577=SURFACE_STYLE_FILL_AREA(#605);
#578=SURFACE_STYLE_FILL_AREA(#606);
#579=SURFACE_STYLE_FILL_AREA(#607);
#580=SURFACE_STYLE_FILL_AREA(#608);
#581=SURFACE_STYLE_FILL_AREA(#609);
#582=SURFACE_STYLE_FILL_AREA(#610);
#583=SURFACE_STYLE_FILL_AREA(#611);
#584=SURFACE_STYLE_FILL_AREA(#612);
#585=SURFACE_STYLE_FILL_AREA(#613);
#586=SURFACE_STYLE_FILL_AREA(#614);
#587=SURFACE_STYLE_FILL_AREA(#615);
#588=SURFACE_STYLE_FILL_AREA(#616);
#589=SURFACE_STYLE_FILL_AREA(#617);
#590=SURFACE_STYLE_FILL_AREA(#618);
#591=SURFACE_STYLE_FILL_AREA(#619);
#592=SURFACE_STYLE_FILL_AREA(#620);
#593=SURFACE_STYLE_FILL_AREA(#621);
#594=SURFACE_STYLE_FILL_AREA(#622);
#595=SURFACE_STYLE_FILL_AREA(#623);
#596=SURFACE_STYLE_FILL_AREA(#624);
#597=SURFACE_STYLE_FILL_AREA(#625);
#598=SURFACE_STYLE_FILL_AREA(#626);
#599=SURFACE_STYLE_FILL_AREA(#627);
#600=SURFACE_STYLE_FILL_AREA(#628);
#601=SURFACE_STYLE_FILL_AREA(#629);
#602=SURFACE_STYLE_FILL_AREA(#630);
#603=FILL_AREA_STYLE('',(#631));
#604=FILL_AREA_STYLE('',(#632));
#605=FILL_AREA_STYLE('',(#633));
#606=FILL_AREA_STYLE('',(#634));
#607=FILL_AREA_STYLE('',(#635));
#608=FILL_AREA_STYLE('',(#636));
#609=FILL_AREA_STYLE('',(#637));
#610=FILL_AREA_STYLE('',(#638));
#611=FILL_AREA_STYLE('',(#639));
#612=FILL_AREA_STYLE('',(#640));
#613=FILL_AREA_STYLE('',(#641));
#614=FILL_AREA_STYLE('',(#642));
#615=FILL_AREA_STYLE('',(#643));
#616=FILL_AREA_STYLE('',(#644));
#617=FILL_AREA_STYLE('',(#645));
#618=FILL_AREA_STYLE('',(#646));
#619=FILL_AREA_STYLE('',(#647));
#620=FILL_AREA_STYLE('',(#648));
#621=FILL_AREA_STYLE('',(#649));
#622=FILL_AREA_STYLE('',(#650));
#623=FILL_AREA_STYLE('',(#651));
#624=FILL_AREA_STYLE('',(#652));
#625=FILL_AREA_STYLE('',(#653));
#626=FILL_AREA_STYLE('',(#654));
#627=FILL_AREA_STYLE('',(#655));
#628=FILL_AREA_STYLE('',(#656));
#629=FILL_AREA_STYLE('',(#657));
#630=FILL_AREA_STYLE('',(#658));
#631=FILL_AREA_STYLE_COLOUR('',#659);
#632=FILL_AREA_STYLE_COLOUR('',#660);
#633=FILL_AREA_STYLE_COLOUR('',#660);
#634=FILL_AREA_STYLE_COLOUR('',#660);
#635=FILL_AREA_STYLE_COLOUR('',#660);
#636=FILL_AREA_STYLE_COLOUR('',#660);
#637=FILL_AREA_STYLE_COLOUR('',#660);
#638=FILL_AREA_STYLE_COLOUR('',#660);
#639=FILL_AREA_STYLE_COLOUR('',#660);
#640=FILL_AREA_STYLE_COLOUR('',#660);
#641=FILL_AREA_STYLE_COLOUR('',#660);
#642=FILL_AREA_STYLE_COLOUR('',#660);
#643=FILL_AREA_STYLE_COLOUR('',#660);
#644=FILL_AREA_STYLE_COLOUR('',#660);
#645=FILL_AREA_STYLE_COLOUR('',#660);
#646=FILL_AREA_STYLE_COLOUR('',#660);
#647=FILL_AREA_STYLE_COLOUR('',#660);
#648=FILL_AREA_STYLE_COLOUR('',#660);
#649=FILL_AREA_STYLE_COLOUR('',#660);
#650=FILL_AREA_STYLE_COLOUR('',#660);
#651=FILL_AREA_STYLE_COLOUR('',#660);
#652=FILL_AREA_STYLE_COLOUR('',#660);
#653=FILL_AREA_STYLE_COLOUR('',#660);
#654=FILL_AREA_STYLE_COLOUR('',#660);
#655=FILL_AREA_STYLE_COLOUR('',#660);
#656=FILL_AREA_STYLE_COLOUR('',#660);
#657=FILL_AREA_STYLE_COLOUR('',#660);
#658=FILL_AREA_STYLE_COLOUR('',#660);
#659=COLOUR_RGB('',0.980392156862745,0.713725490196078,0.00392156862745098);
#660=COLOUR_RGB('',0.43921568627451,0.474509803921569,0.501960784313726);
#661=MANIFOLD_SOLID_BREP('Bottom Case',#489);
#662=SHAPE_DEFINITION_REPRESENTATION(#964,#663);
#663=SHAPE_REPRESENTATION('Bottom Case',(#664),#959);
#664=AXIS2_PLACEMENT_3D('',#832,#706,#707);
#665=AXIS2_PLACEMENT_3D('',#833,#708,#709);
#666=AXIS2_PLACEMENT_3D('',#862,#724,#725);
#667=AXIS2_PLACEMENT_3D('',#863,#726,#727);
#668=AXIS2_PLACEMENT_3D('',#875,#734,#735);
#669=AXIS2_PLACEMENT_3D('',#876,#736,#737);
#670=AXIS2_PLACEMENT_3D('',#878,#738,#739);
#671=AXIS2_PLACEMENT_3D('',#880,#740,#741);
#672=AXIS2_PLACEMENT_3D('',#881,#742,#743);
#673=AXIS2_PLACEMENT_3D('',#883,#744,#745);
#674=AXIS2_PLACEMENT_3D('',#884,#746,#747);
#675=AXIS2_PLACEMENT_3D('',#896,#754,#755);
#676=AXIS2_PLACEMENT_3D('',#900,#758,#759);
#677=AXIS2_PLACEMENT_3D('',#901,#760,#761);
#678=AXIS2_PLACEMENT_3D('',#906,#764,#765);
#679=AXIS2_PLACEMENT_3D('',#907,#766,#767);
#680=AXIS2_PLACEMENT_3D('',#912,#770,#771);
#681=AXIS2_PLACEMENT_3D('',#913,#772,#773);
#682=AXIS2_PLACEMENT_3D('',#918,#776,#777);
#683=AXIS2_PLACEMENT_3D('',#922,#780,#781);
#684=AXIS2_PLACEMENT_3D('',#923,#782,#783);
#685=AXIS2_PLACEMENT_3D('',#928,#786,#787);
#686=AXIS2_PLACEMENT_3D('',#930,#789,#790);
#687=AXIS2_PLACEMENT_3D('',#932,#792,#793);
#688=AXIS2_PLACEMENT_3D('',#933,#794,#795);
#689=AXIS2_PLACEMENT_3D('',#934,#796,#797);
#690=AXIS2_PLACEMENT_3D('',#936,#798,#799);
#691=AXIS2_PLACEMENT_3D('',#938,#801,#802);
#692=AXIS2_PLACEMENT_3D('',#940,#804,#805);
#693=AXIS2_PLACEMENT_3D('',#941,#806,#807);
#694=AXIS2_PLACEMENT_3D('',#942,#808,#809);
#695=AXIS2_PLACEMENT_3D('',#943,#810,#811);
#696=AXIS2_PLACEMENT_3D('',#944,#812,#813);
#697=AXIS2_PLACEMENT_3D('',#945,#814,#815);
#698=AXIS2_PLACEMENT_3D('',#947,#816,#817);
#699=AXIS2_PLACEMENT_3D('',#948,#818,#819);
#700=AXIS2_PLACEMENT_3D('',#950,#820,#821);
#701=AXIS2_PLACEMENT_3D('',#951,#822,#823);
#702=AXIS2_PLACEMENT_3D('',#953,#824,#825);
#703=AXIS2_PLACEMENT_3D('',#954,#826,#827);
#704=AXIS2_PLACEMENT_3D('',#955,#828,#829);
#705=AXIS2_PLACEMENT_3D('',#957,#830,#831);
#706=DIRECTION('',(0.,0.,1.));
#707=DIRECTION('',(1.,0.,0.));
#708=DIRECTION('',(0.,-1.,0.));
#709=DIRECTION('',(1.,0.,0.));
#710=DIRECTION('',(-1.,0.,0.));
#711=DIRECTION('',(0.,0.,1.));
#712=DIRECTION('',(1.,0.,0.));
#713=DIRECTION('',(0.,0.,-1.));
#714=DIRECTION('',(0.869732845365564,0.,-0.493522823881855));
#715=DIRECTION('',(-1.,0.,-1.25477285784941E-16));
#716=DIRECTION('',(1.12279836632803E-16,0.,-1.));
#717=DIRECTION('',(1.,0.,0.));
#718=DIRECTION('',(0.,0.,1.));
#719=DIRECTION('',(-1.,0.,0.));
#720=DIRECTION('',(-4.72033598905254E-16,0.,1.));
#721=DIRECTION('',(1.,0.,2.65349671277523E-16));
#722=DIRECTION('',(0.869732845365564,0.,-0.493522823881854));
#723=DIRECTION('',(0.,0.,-1.));
#724=DIRECTION('',(0.,0.,1.));
#725=DIRECTION('',(1.,0.,0.));
#726=DIRECTION('',(0.,0.,1.));
#727=DIRECTION('',(1.,0.,0.));
#728=DIRECTION('',(1.,0.,0.));
#729=DIRECTION('',(0.,-1.,0.));
#730=DIRECTION('',(0.,1.,0.));
#731=DIRECTION('',(1.,0.,0.));
#732=DIRECTION('',(0.,1.,0.));
#733=DIRECTION('',(0.,1.,0.));
#734=DIRECTION('',(0.,1.,0.));
#735=DIRECTION('',(0.,0.,1.));
#736=DIRECTION('',(0.,-1.,0.));
#737=DIRECTION('',(0.,0.,-1.));
#738=DIRECTION('',(0.,-1.,0.));
#739=DIRECTION('',(0.,0.,-1.));
#740=DIRECTION('',(0.,-1.,0.));
#741=DIRECTION('',(1.,0.,0.));
#742=DIRECTION('',(0.,-1.,0.));
#743=DIRECTION('',(0.,0.,-1.));
#744=DIRECTION('',(0.,0.,-1.));
#745=DIRECTION('',(-1.,0.,0.));
#746=DIRECTION('',(0.,0.,-1.));
#747=DIRECTION('',(-1.,0.,0.));
#748=DIRECTION('',(0.,-1.,0.));
#749=DIRECTION('',(1.,0.,0.));
#750=DIRECTION('',(0.,1.,0.));
#751=DIRECTION('',(0.,1.,0.));
#752=DIRECTION('',(1.,0.,0.));
#753=DIRECTION('',(0.,1.,0.));
#754=DIRECTION('',(-1.,0.,-4.72033598905254E-16));
#755=DIRECTION('',(-4.72033598905254E-16,0.,1.));
#756=DIRECTION('',(0.,0.,-1.));
#757=DIRECTION('',(0.,1.,0.));
#758=DIRECTION('',(-2.65349671277523E-16,0.,1.));
#759=DIRECTION('',(1.,0.,2.65349671277523E-16));
#760=DIRECTION('',(-2.65349671277523E-16,0.,1.));
#761=DIRECTION('',(1.,0.,2.65349671277523E-16));
#762=DIRECTION('',(-1.,0.,0.));
#763=DIRECTION('',(0.,1.,0.));
#764=DIRECTION('',(1.,0.,0.));
#765=DIRECTION('',(0.,0.,-1.));
#766=DIRECTION('',(1.,0.,0.));
#767=DIRECTION('',(0.,0.,-1.));
#768=DIRECTION('',(0.,0.,-1.));
#769=DIRECTION('',(0.,1.,0.));
#770=DIRECTION('',(1.,0.,0.));
#771=DIRECTION('',(0.,0.,-1.));
#772=DIRECTION('',(-1.,0.,0.));
#773=DIRECTION('',(0.,0.,1.));
#774=DIRECTION('',(0.,0.,-1.));
#775=DIRECTION('',(0.,1.,0.));
#776=DIRECTION('',(0.493522823881855,0.,0.869732845365564));
#777=DIRECTION('',(0.869732845365564,0.,-0.493522823881855));
#778=DIRECTION('',(0.869732845365564,0.,-0.493522823881855));
#779=DIRECTION('',(0.,1.,0.));
#780=DIRECTION('',(1.25477285784941E-16,0.,-1.));
#781=DIRECTION('',(-1.,0.,-1.25477285784941E-16));
#782=DIRECTION('',(1.25477285784941E-16,0.,-1.));
#783=DIRECTION('',(-1.,0.,-1.25477285784941E-16));
#784=DIRECTION('',(-1.,0.,-1.25477285784941E-16));
#785=DIRECTION('',(0.,1.,0.));
#786=DIRECTION('',(1.,0.,1.12279836632803E-16));
#787=DIRECTION('',(1.12279836632803E-16,0.,-1.));
#788=DIRECTION('',(1.12279836632803E-16,0.,-1.));
#789=DIRECTION('',(0.493522823881854,0.,0.869732845365564));
#790=DIRECTION('',(0.869732845365564,0.,-0.493522823881854));
#791=DIRECTION('',(0.869732845365564,0.,-0.493522823881854));
#792=DIRECTION('',(0.,-1.,0.));
#793=DIRECTION('',(1.,0.,0.));
#794=DIRECTION('',(0.,-1.,0.));
#795=DIRECTION('',(1.,0.,0.));
#796=DIRECTION('',(0.,-1.,0.));
#797=DIRECTION('',(0.,0.,-1.));
#798=DIRECTION('',(-1.,0.,0.));
#799=DIRECTION('',(0.,0.,1.));
#800=DIRECTION('',(0.,0.,1.));
#801=DIRECTION('',(0.,-1.,0.));
#802=DIRECTION('',(0.,0.,-1.));
#803=DIRECTION('',(0.,0.,1.));
#804=DIRECTION('',(1.,0.,0.));
#805=DIRECTION('',(0.,0.,-1.));
#806=DIRECTION('',(1.25477285784941E-16,0.,-1.));
#807=DIRECTION('',(-1.,0.,-1.25477285784941E-16));
#808=DIRECTION('',(-1.,0.,0.));
#809=DIRECTION('',(0.,0.,1.));
#810=DIRECTION('',(0.,0.,1.));
#811=DIRECTION('',(1.,0.,0.));
#812=DIRECTION('',(0.,1.,0.));
#813=DIRECTION('',(0.,0.,1.));
#814=DIRECTION('',(0.,-1.,0.));
#815=DIRECTION('',(0.,0.,-1.));
#816=DIRECTION('',(0.,-1.,0.));
#817=DIRECTION('',(1.,0.,0.));
#818=DIRECTION('',(0.,-1.,0.));
#819=DIRECTION('',(0.,0.,-1.));
#820=DIRECTION('',(0.,-1.,0.));
#821=DIRECTION('',(0.,0.,-1.));
#822=DIRECTION('',(0.,-1.,0.));
#823=DIRECTION('',(0.,0.,-1.));
#824=DIRECTION('',(0.,-1.,0.));
#825=DIRECTION('',(1.,0.,0.));
#826=DIRECTION('',(0.,-1.,0.));
#827=DIRECTION('',(0.,0.,-1.));
#828=DIRECTION('',(0.,-1.,0.));
#829=DIRECTION('',(0.,0.,-1.));
#830=DIRECTION('',(0.,-1.,0.));
#831=DIRECTION('',(1.,0.,0.));
#832=CARTESIAN_POINT('',(0.,0.,0.));
#833=CARTESIAN_POINT('',(0.00465223147481317,-0.013395,-0.00637873421155145));
#834=CARTESIAN_POINT('',(0.00465223147481316,-0.013395,0.0230212657884486));
#835=CARTESIAN_POINT('',(-0.0260026268548489,-0.013395,0.0230212657884486));
#836=CARTESIAN_POINT('',(-0.0322477685251869,-0.013395,0.0230212657884486));
#837=CARTESIAN_POINT('',(-0.0260026268548489,-0.013395,0.0230212657884486));
#838=CARTESIAN_POINT('',(-0.0260026268548489,-0.013395,0.0245212657884485));
#839=CARTESIAN_POINT('',(0.00465223147481316,-0.013395,0.0245212657884485));
#840=CARTESIAN_POINT('',(-0.0337477685251868,-0.013395,0.0245212657884485));
#841=CARTESIAN_POINT('',(-0.0337477685251868,-0.013395,-0.000278734211551448));
#842=CARTESIAN_POINT('',(-0.0337477685251868,-0.013395,-0.0250787342115515));
#843=CARTESIAN_POINT('',(-0.0229977685251869,-0.013395,-0.0311787342115514));
#844=CARTESIAN_POINT('',(-0.0122477685251868,-0.013395,-0.0372787342115514));
#845=CARTESIAN_POINT('',(0.0154022314748131,-0.013395,-0.0372787342115514));
#846=CARTESIAN_POINT('',(0.0430522314748132,-0.013395,-0.0372787342115514));
#847=CARTESIAN_POINT('',(0.0430522314748132,-0.013395,-0.00637873421155145));
#848=CARTESIAN_POINT('',(0.0430522314748132,-0.013395,0.0245212657884485));
#849=CARTESIAN_POINT('',(0.00465223147481316,-0.013395,0.0245212657884485));
#850=CARTESIAN_POINT('',(-0.0140026268548488,-0.013395,0.0245212657884485));
#851=CARTESIAN_POINT('',(-0.0140026268548488,-0.013395,0.0230212657884486));
#852=CARTESIAN_POINT('',(-0.0140026268548488,-0.013395,0.0230212657884486));
#853=CARTESIAN_POINT('',(0.00465223147481316,-0.013395,0.0230212657884486));
#854=CARTESIAN_POINT('',(0.0415522314748131,-0.013395,0.0230212657884486));
#855=CARTESIAN_POINT('',(0.0415522314748131,-0.013395,-0.00637873421155144));
#856=CARTESIAN_POINT('',(0.0415522314748132,-0.013395,-0.0357787342115514));
#857=CARTESIAN_POINT('',(0.0154022314748132,-0.013395,-0.0357787342115514));
#858=CARTESIAN_POINT('',(-0.0107477685251868,-0.013395,-0.0357787342115514));
#859=CARTESIAN_POINT('',(-0.0214977685251868,-0.013395,-0.0296787342115515));
#860=CARTESIAN_POINT('',(-0.0322477685251869,-0.013395,-0.0235787342115515));
#861=CARTESIAN_POINT('',(-0.0322477685251869,-0.013395,-0.000278734211551449));
#862=CARTESIAN_POINT('',(0.00465223147481316,-0.013395,0.0245212657884485));
#863=CARTESIAN_POINT('',(0.0386522314748131,-0.01102,0.0245212657884485));
#864=CARTESIAN_POINT('',(0.0401022314748131,-0.01102,0.0245212657884485));
#865=CARTESIAN_POINT('',(-0.0200026268548489,-0.0085055975644439,0.0245212657884485));
#866=CARTESIAN_POINT('',(-0.0260026268548489,-0.0085055975644439,0.0245212657884485));
#867=CARTESIAN_POINT('',(-0.0140026268548488,-0.0085055975644439,0.0245212657884485));
#868=CARTESIAN_POINT('',(-0.0140026268548488,-0.0109502987822219,0.0245212657884485));
#869=CARTESIAN_POINT('',(0.0430522314748132,-0.013395,0.0245212657884485));
#870=CARTESIAN_POINT('',(0.0430522314748132,0.,0.0245212657884485));
#871=CARTESIAN_POINT('',(0.00465223147481316,0.,0.0245212657884485));
#872=CARTESIAN_POINT('',(-0.0337477685251868,0.,0.0245212657884485));
#873=CARTESIAN_POINT('',(-0.0337477685251868,-0.013395,0.0245212657884485));
#874=CARTESIAN_POINT('',(-0.0260026268548489,-0.0109502987822219,0.0245212657884485));
#875=CARTESIAN_POINT('',(0.0368648543953895,-0.007,0.0113208265975118));
#876=CARTESIAN_POINT('',(0.0368648543953895,-0.007,0.0113208265975118));
#877=CARTESIAN_POINT('',(0.0368648543953895,-0.007,0.00747082659751176));
#878=CARTESIAN_POINT('',(0.0368648543953895,-0.003,0.0113208265975118));
#879=CARTESIAN_POINT('',(0.0368648543953895,-0.003,0.00747082659751176));
#880=CARTESIAN_POINT('',(0.00465223147481318,-0.007,-0.00637873421155145));
#881=CARTESIAN_POINT('',(0.036878861214367,-0.007,0.0113107709477096));
#882=CARTESIAN_POINT('',(0.036878861214367,-0.007,0.0089607709477096));
#883=CARTESIAN_POINT('',(0.00465223147481316,-0.013395,0.0230212657884486));
#884=CARTESIAN_POINT('',(0.0386522314748131,-0.01102,0.0230212657884486));
#885=CARTESIAN_POINT('',(0.0372022314748131,-0.01102,0.0230212657884486));
#886=CARTESIAN_POINT('',(-0.0140026268548488,-0.0109502987822219,0.0230212657884486));
#887=CARTESIAN_POINT('',(-0.0140026268548488,-0.0085055975644439,0.0230212657884486));
#888=CARTESIAN_POINT('',(-0.0200026268548489,-0.0085055975644439,0.0230212657884486));
#889=CARTESIAN_POINT('',(-0.0260026268548489,-0.0085055975644439,0.0230212657884486));
#890=CARTESIAN_POINT('',(-0.0260026268548489,-0.0109502987822219,0.0230212657884486));
#891=CARTESIAN_POINT('',(-0.0322477685251869,-0.013395,0.0230212657884486));
#892=CARTESIAN_POINT('',(-0.0322477685251869,-0.003,0.0230212657884486));
#893=CARTESIAN_POINT('',(0.00465223147481316,-0.003,0.0230212657884486));
#894=CARTESIAN_POINT('',(0.0415522314748131,-0.003,0.0230212657884486));
#895=CARTESIAN_POINT('',(0.0415522314748131,-0.013395,0.0230212657884486));
#896=CARTESIAN_POINT('',(0.0415522314748131,-0.013395,-0.00637873421155144));
#897=CARTESIAN_POINT('',(0.0415522314748131,-0.003,-0.00637873421155144));
#898=CARTESIAN_POINT('',(0.0415522314748132,-0.003,-0.0357787342115514));
#899=CARTESIAN_POINT('',(0.0415522314748132,-0.013395,-0.0357787342115514));
#900=CARTESIAN_POINT('',(0.0154022314748132,-0.013395,-0.0357787342115514));
#901=CARTESIAN_POINT('',(0.0305601172149182,-0.01102,-0.0357787342115514));
#902=CARTESIAN_POINT('',(0.0320101172149182,-0.01102,-0.0357787342115514));
#903=CARTESIAN_POINT('',(0.0154022314748132,-0.003,-0.0357787342115514));
#904=CARTESIAN_POINT('',(-0.0107477685251868,-0.003,-0.0357787342115514));
#905=CARTESIAN_POINT('',(-0.0107477685251868,-0.013395,-0.0357787342115514));
#906=CARTESIAN_POINT('',(-0.0322477685251869,-0.013395,-0.000278734211551449));
#907=CARTESIAN_POINT('',(-0.0322477685251869,-0.010966707020998,-0.00920090824365616));
#908=CARTESIAN_POINT('',(-0.0322477685251869,-0.010966707020998,-0.0106509082436562));
#909=CARTESIAN_POINT('',(-0.0322477685251869,-0.003,-0.000278734211551446));
#910=CARTESIAN_POINT('',(-0.0322477685251869,-0.003,-0.0235787342115515));
#911=CARTESIAN_POINT('',(-0.0322477685251869,-0.013395,-0.0235787342115515));
#912=CARTESIAN_POINT('',(-0.0337477685251868,-0.013395,-0.000278734211551448));
#913=CARTESIAN_POINT('',(-0.0337477685251868,-0.010966707020998,-0.00920090824365616));
#914=CARTESIAN_POINT('',(-0.0337477685251868,-0.010966707020998,-0.00775090824365616));
#915=CARTESIAN_POINT('',(-0.0337477685251868,0.,-0.000278734211551448));
#916=CARTESIAN_POINT('',(-0.0337477685251868,0.,-0.0250787342115515));
#917=CARTESIAN_POINT('',(-0.0337477685251868,-0.013395,-0.0250787342115515));
#918=CARTESIAN_POINT('',(-0.0229977685251869,-0.013395,-0.0311787342115514));
#919=CARTESIAN_POINT('',(-0.0229977685251869,0.,-0.0311787342115514));
#920=CARTESIAN_POINT('',(-0.0122477685251868,0.,-0.0372787342115514));
#921=CARTESIAN_POINT('',(-0.0122477685251868,-0.013395,-0.0372787342115514));
#922=CARTESIAN_POINT('',(0.0154022314748131,-0.013395,-0.0372787342115514));
#923=CARTESIAN_POINT('',(0.0305601172149182,-0.01102,-0.0372787342115514));
#924=CARTESIAN_POINT('',(0.0291101172149182,-0.01102,-0.0372787342115514));
#925=CARTESIAN_POINT('',(0.0154022314748131,0.,-0.0372787342115514));
#926=CARTESIAN_POINT('',(0.0430522314748132,0.,-0.0372787342115514));
#927=CARTESIAN_POINT('',(0.0430522314748132,-0.013395,-0.0372787342115514));
#928=CARTESIAN_POINT('',(0.0430522314748132,-0.013395,-0.00637873421155145));
#929=CARTESIAN_POINT('',(0.0430522314748132,0.,-0.00637873421155145));
#930=CARTESIAN_POINT('',(-0.0214977685251868,-0.013395,-0.0296787342115515));
#931=CARTESIAN_POINT('',(-0.0214977685251868,-0.003,-0.0296787342115515));
#932=CARTESIAN_POINT('',(0.00465223147481317,0.,-0.00637873421155145));
#933=CARTESIAN_POINT('',(0.00465223147481317,-0.003,-0.00637873421155145));
#934=CARTESIAN_POINT('',(-0.0131613714620471,-0.003,-0.0296700783073902));
#935=CARTESIAN_POINT('',(-0.0131613714620471,-0.003,-0.0335200783073902));
#936=CARTESIAN_POINT('',(-0.0140026268548488,-0.0109502987822219,0.0230212657884486));
#937=CARTESIAN_POINT('',(-0.0140026268548488,-0.0085055975644439,0.0230212657884486));
#938=CARTESIAN_POINT('',(-0.0200026268548489,-0.0085055975644439,0.0230212657884486));
#939=CARTESIAN_POINT('',(-0.0260026268548489,-0.0085055975644439,0.0230212657884486));
#940=CARTESIAN_POINT('',(-0.0260026268548489,-0.0109502987822219,0.0230212657884486));
#941=CARTESIAN_POINT('',(0.0305601172149182,-0.01102,-0.0318787342115514));
#942=CARTESIAN_POINT('',(-0.0283477685251868,-0.010966707020998,-0.00920090824365616));
#943=CARTESIAN_POINT('',(0.0386522314748131,-0.01102,0.0191212657884486));
#944=CARTESIAN_POINT('',(-0.0131613714620471,-0.007,-0.0296700783073902));
#945=CARTESIAN_POINT('',(-0.0131613714620471,-0.007,-0.0296700783073902));
#946=CARTESIAN_POINT('',(-0.0131613714620471,-0.007,-0.0335200783073902));
#947=CARTESIAN_POINT('',(0.00465223147481318,-0.007,-0.00637873421155145));
#948=CARTESIAN_POINT('',(-0.0131613714620471,-0.007,-0.0296700783073902));
#949=CARTESIAN_POINT('',(-0.0131613714620471,-0.007,-0.0320200783073902));
#950=CARTESIAN_POINT('',(-0.0131613714620471,-0.003,-0.0296700783073902));
#951=CARTESIAN_POINT('',(-0.0131613714620471,-0.003,-0.0296700783073902));
#952=CARTESIAN_POINT('',(-0.0131613714620471,-0.003,-0.0320200783073902));
#953=CARTESIAN_POINT('',(-0.0131613714620471,-0.003,-0.0296700783073902));
#954=CARTESIAN_POINT('',(0.036878861214367,-0.003,0.0113107709477096));
#955=CARTESIAN_POINT('',(0.036878861214367,-0.003,0.0113107709477096));
#956=CARTESIAN_POINT('',(0.036878861214367,-0.003,0.0089607709477096));
#957=CARTESIAN_POINT('',(0.0368648543953895,-0.003,0.0113208265975118));
#958=MECHANICAL_DESIGN_GEOMETRIC_PRESENTATION_REPRESENTATION('',(#490,#435,
#436,#437,#438,#439,#440,#441,#442,#443,#444,#445,#446,#447,#448,#449,#450,
#451,#452,#453,#454,#455,#456,#457,#458,#459,#460,#461),#959);
#959=(
GEOMETRIC_REPRESENTATION_CONTEXT(3)
GLOBAL_UNCERTAINTY_ASSIGNED_CONTEXT((#960))
GLOBAL_UNIT_ASSIGNED_CONTEXT((#963,#962,#961))
REPRESENTATION_CONTEXT('Bottom Case','TOP_LEVEL_ASSEMBLY_PART')
);
#960=UNCERTAINTY_MEASURE_WITH_UNIT(LENGTH_MEASURE(1.E-8),#963,
'DISTANCE_ACCURACY_VALUE','Maximum Tolerance applied to model');
#961=(
NAMED_UNIT(*)
SI_UNIT($,.STERADIAN.)
SOLID_ANGLE_UNIT()
);
#962=(
NAMED_UNIT(*)
PLANE_ANGLE_UNIT()
SI_UNIT($,.RADIAN.)
);
#963=(
LENGTH_UNIT()
NAMED_UNIT(*)
SI_UNIT($,.METRE.)
);
#964=PRODUCT_DEFINITION_SHAPE('','',#965);
#965=PRODUCT_DEFINITION('','',#967,#966);
#966=PRODUCT_DEFINITION_CONTEXT('',#973,'design');
#967=PRODUCT_DEFINITION_FORMATION_WITH_SPECIFIED_SOURCE('','',#969,
 .NOT_KNOWN.);
#968=PRODUCT_RELATED_PRODUCT_CATEGORY('','',(#969));
#969=PRODUCT('Bottom Case','Bottom Case','Bottom Case',(#971));
#970=PRODUCT_CATEGORY('','');
#971=PRODUCT_CONTEXT('',#973,'mechanical');
#972=APPLICATION_PROTOCOL_DEFINITION('international standard',
'ap242_managed_model_based_3d_engineering',2020,#973);
#973=APPLICATION_CONTEXT('managed model based 3d engineering');
ENDSEC;
END-ISO-10303-21;
