ISO-10303-21;
HEADER;
/* Generated by software containing ST-Developer
 * from STEP Tools, Inc. (www.steptools.com) 
 */
/* OPTION: using custom renumber hook */

FILE_DESCRIPTION(
/* description */ ('STEP AP242 Edition 2',
'CAx-IF Rec.Pracs.---Representation and Presentation of Product Manufa
cturing Information (PMI)---4.0---2014-10-13',
'CAx-IF Rec.Pracs.---3D Tessellated Geometry---0.4---2014-09-14','2;1',
'CAx-IF Rec.Pracs.---User Defined Attributes---1.5---2016-08-15'),
/* implementation_level */ '2;1');

FILE_NAME(
/* name */ 'Part Studio 1 - Top Plate',
/* time_stamp */ '2026-06-25T15:55:39Z',
/* author */ (''),
/* organization */ (''),
/* preprocessor_version */ 'ST-DEVELOPER v20',
/* originating_system */ 'ONSHAPE BY PTC INC, 1.216',
/* authorisation */ '  ');

FILE_SCHEMA (('AP242_MANAGED_MODEL_BASED_3D_ENGINEERING_MIM_LF { 1 0 10303 442 3 1 4 }'));
ENDSEC;

DATA;
#10=SHAPE_REPRESENTATION_RELATIONSHIP('','',#1200,#11);
#11=ADVANCED_BREP_SHAPE_REPRESENTATION('',(#1198),#1880);
#12=CYLINDRICAL_SURFACE('',#1249,0.00145);
#13=CYLINDRICAL_SURFACE('',#1252,0.00145);
#14=CYLINDRICAL_SURFACE('',#1255,0.00145);
#15=CIRCLE('',#1206,0.00145);
#16=CIRCLE('',#1210,0.00145);
#17=CIRCLE('',#1213,0.00145);
#18=CIRCLE('',#1248,0.00145);
#19=CIRCLE('',#1251,0.00145);
#20=CIRCLE('',#1254,0.00145);
#21=ORIENTED_EDGE('',*,*,#339,.T.);
#22=ORIENTED_EDGE('',*,*,#340,.F.);
#23=ORIENTED_EDGE('',*,*,#341,.F.);
#24=ORIENTED_EDGE('',*,*,#342,.F.);
#25=ORIENTED_EDGE('',*,*,#343,.F.);
#26=ORIENTED_EDGE('',*,*,#344,.T.);
#27=ORIENTED_EDGE('',*,*,#345,.T.);
#28=ORIENTED_EDGE('',*,*,#346,.F.);
#29=ORIENTED_EDGE('',*,*,#347,.F.);
#30=ORIENTED_EDGE('',*,*,#348,.T.);
#31=ORIENTED_EDGE('',*,*,#349,.T.);
#32=ORIENTED_EDGE('',*,*,#350,.F.);
#33=ORIENTED_EDGE('',*,*,#351,.F.);
#34=ORIENTED_EDGE('',*,*,#352,.T.);
#35=ORIENTED_EDGE('',*,*,#353,.T.);
#36=ORIENTED_EDGE('',*,*,#354,.F.);
#37=ORIENTED_EDGE('',*,*,#355,.F.);
#38=ORIENTED_EDGE('',*,*,#356,.T.);
#39=ORIENTED_EDGE('',*,*,#357,.T.);
#40=ORIENTED_EDGE('',*,*,#358,.F.);
#41=ORIENTED_EDGE('',*,*,#359,.F.);
#42=ORIENTED_EDGE('',*,*,#360,.T.);
#43=ORIENTED_EDGE('',*,*,#361,.T.);
#44=ORIENTED_EDGE('',*,*,#362,.F.);
#45=ORIENTED_EDGE('',*,*,#363,.F.);
#46=ORIENTED_EDGE('',*,*,#364,.T.);
#47=ORIENTED_EDGE('',*,*,#365,.T.);
#48=ORIENTED_EDGE('',*,*,#366,.F.);
#49=ORIENTED_EDGE('',*,*,#367,.F.);
#50=ORIENTED_EDGE('',*,*,#368,.T.);
#51=ORIENTED_EDGE('',*,*,#369,.T.);
#52=ORIENTED_EDGE('',*,*,#370,.F.);
#53=ORIENTED_EDGE('',*,*,#371,.F.);
#54=ORIENTED_EDGE('',*,*,#372,.F.);
#55=ORIENTED_EDGE('',*,*,#373,.F.);
#56=ORIENTED_EDGE('',*,*,#374,.F.);
#57=ORIENTED_EDGE('',*,*,#375,.T.);
#58=ORIENTED_EDGE('',*,*,#376,.T.);
#59=ORIENTED_EDGE('',*,*,#377,.F.);
#60=ORIENTED_EDGE('',*,*,#378,.F.);
#61=ORIENTED_EDGE('',*,*,#379,.F.);
#62=ORIENTED_EDGE('',*,*,#380,.F.);
#63=ORIENTED_EDGE('',*,*,#381,.F.);
#64=ORIENTED_EDGE('',*,*,#382,.T.);
#65=ORIENTED_EDGE('',*,*,#383,.T.);
#66=ORIENTED_EDGE('',*,*,#384,.T.);
#67=ORIENTED_EDGE('',*,*,#385,.F.);
#68=ORIENTED_EDGE('',*,*,#386,.F.);
#69=ORIENTED_EDGE('',*,*,#387,.F.);
#70=ORIENTED_EDGE('',*,*,#388,.F.);
#71=ORIENTED_EDGE('',*,*,#389,.F.);
#72=ORIENTED_EDGE('',*,*,#390,.T.);
#73=ORIENTED_EDGE('',*,*,#391,.T.);
#74=ORIENTED_EDGE('',*,*,#392,.T.);
#75=ORIENTED_EDGE('',*,*,#393,.F.);
#76=ORIENTED_EDGE('',*,*,#394,.T.);
#77=ORIENTED_EDGE('',*,*,#395,.T.);
#78=ORIENTED_EDGE('',*,*,#396,.F.);
#79=ORIENTED_EDGE('',*,*,#397,.F.);
#80=ORIENTED_EDGE('',*,*,#398,.T.);
#81=ORIENTED_EDGE('',*,*,#399,.T.);
#82=ORIENTED_EDGE('',*,*,#400,.F.);
#83=ORIENTED_EDGE('',*,*,#401,.F.);
#84=ORIENTED_EDGE('',*,*,#402,.T.);
#85=ORIENTED_EDGE('',*,*,#403,.T.);
#86=ORIENTED_EDGE('',*,*,#404,.F.);
#87=ORIENTED_EDGE('',*,*,#405,.F.);
#88=ORIENTED_EDGE('',*,*,#406,.T.);
#89=ORIENTED_EDGE('',*,*,#407,.T.);
#90=ORIENTED_EDGE('',*,*,#408,.F.);
#91=ORIENTED_EDGE('',*,*,#409,.F.);
#92=ORIENTED_EDGE('',*,*,#410,.T.);
#93=ORIENTED_EDGE('',*,*,#411,.T.);
#94=ORIENTED_EDGE('',*,*,#412,.F.);
#95=ORIENTED_EDGE('',*,*,#413,.F.);
#96=ORIENTED_EDGE('',*,*,#414,.T.);
#97=ORIENTED_EDGE('',*,*,#415,.T.);
#98=ORIENTED_EDGE('',*,*,#416,.F.);
#99=ORIENTED_EDGE('',*,*,#417,.F.);
#100=ORIENTED_EDGE('',*,*,#418,.T.);
#101=ORIENTED_EDGE('',*,*,#419,.T.);
#102=ORIENTED_EDGE('',*,*,#420,.T.);
#103=ORIENTED_EDGE('',*,*,#421,.T.);
#104=ORIENTED_EDGE('',*,*,#422,.T.);
#105=ORIENTED_EDGE('',*,*,#423,.T.);
#106=ORIENTED_EDGE('',*,*,#424,.F.);
#107=ORIENTED_EDGE('',*,*,#425,.F.);
#108=ORIENTED_EDGE('',*,*,#426,.T.);
#109=ORIENTED_EDGE('',*,*,#427,.T.);
#110=ORIENTED_EDGE('',*,*,#428,.F.);
#111=ORIENTED_EDGE('',*,*,#417,.T.);
#112=ORIENTED_EDGE('',*,*,#429,.F.);
#113=ORIENTED_EDGE('',*,*,#375,.F.);
#114=ORIENTED_EDGE('',*,*,#430,.T.);
#115=ORIENTED_EDGE('',*,*,#431,.T.);
#116=ORIENTED_EDGE('',*,*,#388,.T.);
#117=ORIENTED_EDGE('',*,*,#432,.T.);
#118=ORIENTED_EDGE('',*,*,#418,.F.);
#119=ORIENTED_EDGE('',*,*,#430,.F.);
#120=ORIENTED_EDGE('',*,*,#374,.T.);
#121=ORIENTED_EDGE('',*,*,#433,.F.);
#122=ORIENTED_EDGE('',*,*,#434,.T.);
#123=ORIENTED_EDGE('',*,*,#435,.F.);
#124=ORIENTED_EDGE('',*,*,#419,.F.);
#125=ORIENTED_EDGE('',*,*,#432,.F.);
#126=ORIENTED_EDGE('',*,*,#387,.T.);
#127=ORIENTED_EDGE('',*,*,#436,.T.);
#128=ORIENTED_EDGE('',*,*,#420,.F.);
#129=ORIENTED_EDGE('',*,*,#436,.F.);
#130=ORIENTED_EDGE('',*,*,#386,.T.);
#131=ORIENTED_EDGE('',*,*,#437,.T.);
#132=ORIENTED_EDGE('',*,*,#438,.T.);
#133=ORIENTED_EDGE('',*,*,#381,.T.);
#134=ORIENTED_EDGE('',*,*,#439,.T.);
#135=ORIENTED_EDGE('',*,*,#421,.F.);
#136=ORIENTED_EDGE('',*,*,#437,.F.);
#137=ORIENTED_EDGE('',*,*,#385,.T.);
#138=ORIENTED_EDGE('',*,*,#440,.F.);
#139=ORIENTED_EDGE('',*,*,#441,.T.);
#140=ORIENTED_EDGE('',*,*,#442,.F.);
#141=ORIENTED_EDGE('',*,*,#422,.F.);
#142=ORIENTED_EDGE('',*,*,#439,.F.);
#143=ORIENTED_EDGE('',*,*,#380,.T.);
#144=ORIENTED_EDGE('',*,*,#443,.F.);
#145=ORIENTED_EDGE('',*,*,#444,.T.);
#146=ORIENTED_EDGE('',*,*,#445,.T.);
#147=ORIENTED_EDGE('',*,*,#446,.F.);
#148=ORIENTED_EDGE('',*,*,#445,.F.);
#149=ORIENTED_EDGE('',*,*,#447,.T.);
#150=ORIENTED_EDGE('',*,*,#448,.T.);
#151=ORIENTED_EDGE('',*,*,#377,.T.);
#152=ORIENTED_EDGE('',*,*,#449,.T.);
#153=ORIENTED_EDGE('',*,*,#423,.F.);
#154=ORIENTED_EDGE('',*,*,#424,.T.);
#155=ORIENTED_EDGE('',*,*,#449,.F.);
#156=ORIENTED_EDGE('',*,*,#376,.F.);
#157=ORIENTED_EDGE('',*,*,#429,.T.);
#158=ORIENTED_EDGE('',*,*,#355,.T.);
#159=ORIENTED_EDGE('',*,*,#450,.T.);
#160=ORIENTED_EDGE('',*,*,#414,.F.);
#161=ORIENTED_EDGE('',*,*,#451,.F.);
#162=ORIENTED_EDGE('',*,*,#451,.T.);
#163=ORIENTED_EDGE('',*,*,#413,.T.);
#164=ORIENTED_EDGE('',*,*,#452,.F.);
#165=ORIENTED_EDGE('',*,*,#356,.F.);
#166=ORIENTED_EDGE('',*,*,#452,.T.);
#167=ORIENTED_EDGE('',*,*,#416,.T.);
#168=ORIENTED_EDGE('',*,*,#453,.F.);
#169=ORIENTED_EDGE('',*,*,#357,.F.);
#170=ORIENTED_EDGE('',*,*,#358,.T.);
#171=ORIENTED_EDGE('',*,*,#453,.T.);
#172=ORIENTED_EDGE('',*,*,#415,.F.);
#173=ORIENTED_EDGE('',*,*,#450,.F.);
#174=ORIENTED_EDGE('',*,*,#351,.T.);
#175=ORIENTED_EDGE('',*,*,#454,.T.);
#176=ORIENTED_EDGE('',*,*,#410,.F.);
#177=ORIENTED_EDGE('',*,*,#455,.F.);
#178=ORIENTED_EDGE('',*,*,#455,.T.);
#179=ORIENTED_EDGE('',*,*,#409,.T.);
#180=ORIENTED_EDGE('',*,*,#456,.F.);
#181=ORIENTED_EDGE('',*,*,#352,.F.);
#182=ORIENTED_EDGE('',*,*,#456,.T.);
#183=ORIENTED_EDGE('',*,*,#412,.T.);
#184=ORIENTED_EDGE('',*,*,#457,.F.);
#185=ORIENTED_EDGE('',*,*,#353,.F.);
#186=ORIENTED_EDGE('',*,*,#354,.T.);
#187=ORIENTED_EDGE('',*,*,#457,.T.);
#188=ORIENTED_EDGE('',*,*,#411,.F.);
#189=ORIENTED_EDGE('',*,*,#454,.F.);
#190=ORIENTED_EDGE('',*,*,#359,.T.);
#191=ORIENTED_EDGE('',*,*,#458,.T.);
#192=ORIENTED_EDGE('',*,*,#406,.F.);
#193=ORIENTED_EDGE('',*,*,#459,.F.);
#194=ORIENTED_EDGE('',*,*,#459,.T.);
#195=ORIENTED_EDGE('',*,*,#405,.T.);
#196=ORIENTED_EDGE('',*,*,#460,.F.);
#197=ORIENTED_EDGE('',*,*,#360,.F.);
#198=ORIENTED_EDGE('',*,*,#460,.T.);
#199=ORIENTED_EDGE('',*,*,#408,.T.);
#200=ORIENTED_EDGE('',*,*,#461,.F.);
#201=ORIENTED_EDGE('',*,*,#361,.F.);
#202=ORIENTED_EDGE('',*,*,#362,.T.);
#203=ORIENTED_EDGE('',*,*,#461,.T.);
#204=ORIENTED_EDGE('',*,*,#407,.F.);
#205=ORIENTED_EDGE('',*,*,#458,.F.);
#206=ORIENTED_EDGE('',*,*,#347,.T.);
#207=ORIENTED_EDGE('',*,*,#462,.T.);
#208=ORIENTED_EDGE('',*,*,#402,.F.);
#209=ORIENTED_EDGE('',*,*,#463,.F.);
#210=ORIENTED_EDGE('',*,*,#463,.T.);
#211=ORIENTED_EDGE('',*,*,#401,.T.);
#212=ORIENTED_EDGE('',*,*,#464,.F.);
#213=ORIENTED_EDGE('',*,*,#348,.F.);
#214=ORIENTED_EDGE('',*,*,#464,.T.);
#215=ORIENTED_EDGE('',*,*,#404,.T.);
#216=ORIENTED_EDGE('',*,*,#465,.F.);
#217=ORIENTED_EDGE('',*,*,#349,.F.);
#218=ORIENTED_EDGE('',*,*,#350,.T.);
#219=ORIENTED_EDGE('',*,*,#465,.T.);
#220=ORIENTED_EDGE('',*,*,#403,.F.);
#221=ORIENTED_EDGE('',*,*,#462,.F.);
#222=ORIENTED_EDGE('',*,*,#363,.T.);
#223=ORIENTED_EDGE('',*,*,#466,.T.);
#224=ORIENTED_EDGE('',*,*,#398,.F.);
#225=ORIENTED_EDGE('',*,*,#467,.F.);
#226=ORIENTED_EDGE('',*,*,#467,.T.);
#227=ORIENTED_EDGE('',*,*,#397,.T.);
#228=ORIENTED_EDGE('',*,*,#468,.F.);
#229=ORIENTED_EDGE('',*,*,#364,.F.);
#230=ORIENTED_EDGE('',*,*,#468,.T.);
#231=ORIENTED_EDGE('',*,*,#400,.T.);
#232=ORIENTED_EDGE('',*,*,#469,.F.);
#233=ORIENTED_EDGE('',*,*,#365,.F.);
#234=ORIENTED_EDGE('',*,*,#366,.T.);
#235=ORIENTED_EDGE('',*,*,#469,.T.);
#236=ORIENTED_EDGE('',*,*,#399,.F.);
#237=ORIENTED_EDGE('',*,*,#466,.F.);
#238=ORIENTED_EDGE('',*,*,#343,.T.);
#239=ORIENTED_EDGE('',*,*,#470,.T.);
#240=ORIENTED_EDGE('',*,*,#394,.F.);
#241=ORIENTED_EDGE('',*,*,#471,.F.);
#242=ORIENTED_EDGE('',*,*,#471,.T.);
#243=ORIENTED_EDGE('',*,*,#393,.T.);
#244=ORIENTED_EDGE('',*,*,#472,.F.);
#245=ORIENTED_EDGE('',*,*,#344,.F.);
#246=ORIENTED_EDGE('',*,*,#472,.T.);
#247=ORIENTED_EDGE('',*,*,#396,.T.);
#248=ORIENTED_EDGE('',*,*,#473,.F.);
#249=ORIENTED_EDGE('',*,*,#345,.F.);
#250=ORIENTED_EDGE('',*,*,#346,.T.);
#251=ORIENTED_EDGE('',*,*,#473,.T.);
#252=ORIENTED_EDGE('',*,*,#395,.F.);
#253=ORIENTED_EDGE('',*,*,#470,.F.);
#254=ORIENTED_EDGE('',*,*,#367,.T.);
#255=ORIENTED_EDGE('',*,*,#474,.T.);
#256=ORIENTED_EDGE('',*,*,#426,.F.);
#257=ORIENTED_EDGE('',*,*,#475,.F.);
#258=ORIENTED_EDGE('',*,*,#475,.T.);
#259=ORIENTED_EDGE('',*,*,#425,.T.);
#260=ORIENTED_EDGE('',*,*,#476,.F.);
#261=ORIENTED_EDGE('',*,*,#368,.F.);
#262=ORIENTED_EDGE('',*,*,#476,.T.);
#263=ORIENTED_EDGE('',*,*,#428,.T.);
#264=ORIENTED_EDGE('',*,*,#477,.F.);
#265=ORIENTED_EDGE('',*,*,#369,.F.);
#266=ORIENTED_EDGE('',*,*,#370,.T.);
#267=ORIENTED_EDGE('',*,*,#477,.T.);
#268=ORIENTED_EDGE('',*,*,#427,.F.);
#269=ORIENTED_EDGE('',*,*,#474,.F.);
#270=ORIENTED_EDGE('',*,*,#342,.T.);
#271=ORIENTED_EDGE('',*,*,#478,.F.);
#272=ORIENTED_EDGE('',*,*,#390,.F.);
#273=ORIENTED_EDGE('',*,*,#479,.F.);
#274=ORIENTED_EDGE('',*,*,#341,.T.);
#275=ORIENTED_EDGE('',*,*,#480,.F.);
#276=ORIENTED_EDGE('',*,*,#391,.F.);
#277=ORIENTED_EDGE('',*,*,#478,.T.);
#278=ORIENTED_EDGE('',*,*,#340,.T.);
#279=ORIENTED_EDGE('',*,*,#481,.T.);
#280=ORIENTED_EDGE('',*,*,#392,.F.);
#281=ORIENTED_EDGE('',*,*,#480,.T.);
#282=ORIENTED_EDGE('',*,*,#389,.T.);
#283=ORIENTED_EDGE('',*,*,#481,.F.);
#284=ORIENTED_EDGE('',*,*,#339,.F.);
#285=ORIENTED_EDGE('',*,*,#479,.T.);
#286=ORIENTED_EDGE('',*,*,#482,.T.);
#287=ORIENTED_EDGE('',*,*,#482,.F.);
#288=ORIENTED_EDGE('',*,*,#442,.T.);
#289=ORIENTED_EDGE('',*,*,#483,.T.);
#290=ORIENTED_EDGE('',*,*,#483,.F.);
#291=ORIENTED_EDGE('',*,*,#435,.T.);
#292=ORIENTED_EDGE('',*,*,#484,.T.);
#293=ORIENTED_EDGE('',*,*,#446,.T.);
#294=ORIENTED_EDGE('',*,*,#484,.F.);
#295=ORIENTED_EDGE('',*,*,#382,.F.);
#296=ORIENTED_EDGE('',*,*,#438,.F.);
#297=ORIENTED_EDGE('',*,*,#485,.T.);
#298=ORIENTED_EDGE('',*,*,#486,.T.);
#299=ORIENTED_EDGE('',*,*,#384,.F.);
#300=ORIENTED_EDGE('',*,*,#487,.F.);
#301=ORIENTED_EDGE('',*,*,#488,.T.);
#302=ORIENTED_EDGE('',*,*,#440,.T.);
#303=ORIENTED_EDGE('',*,*,#383,.F.);
#304=ORIENTED_EDGE('',*,*,#486,.F.);
#305=ORIENTED_EDGE('',*,*,#489,.T.);
#306=ORIENTED_EDGE('',*,*,#487,.T.);
#307=ORIENTED_EDGE('',*,*,#485,.F.);
#308=ORIENTED_EDGE('',*,*,#441,.F.);
#309=ORIENTED_EDGE('',*,*,#488,.F.);
#310=ORIENTED_EDGE('',*,*,#489,.F.);
#311=ORIENTED_EDGE('',*,*,#373,.T.);
#312=ORIENTED_EDGE('',*,*,#490,.F.);
#313=ORIENTED_EDGE('',*,*,#491,.F.);
#314=ORIENTED_EDGE('',*,*,#433,.T.);
#315=ORIENTED_EDGE('',*,*,#372,.T.);
#316=ORIENTED_EDGE('',*,*,#492,.F.);
#317=ORIENTED_EDGE('',*,*,#493,.F.);
#318=ORIENTED_EDGE('',*,*,#490,.T.);
#319=ORIENTED_EDGE('',*,*,#371,.T.);
#320=ORIENTED_EDGE('',*,*,#431,.F.);
#321=ORIENTED_EDGE('',*,*,#494,.F.);
#322=ORIENTED_EDGE('',*,*,#492,.T.);
#323=ORIENTED_EDGE('',*,*,#434,.F.);
#324=ORIENTED_EDGE('',*,*,#491,.T.);
#325=ORIENTED_EDGE('',*,*,#493,.T.);
#326=ORIENTED_EDGE('',*,*,#494,.T.);
#327=ORIENTED_EDGE('',*,*,#379,.T.);
#328=ORIENTED_EDGE('',*,*,#495,.F.);
#329=ORIENTED_EDGE('',*,*,#496,.F.);
#330=ORIENTED_EDGE('',*,*,#443,.T.);
#331=ORIENTED_EDGE('',*,*,#378,.T.);
#332=ORIENTED_EDGE('',*,*,#448,.F.);
#333=ORIENTED_EDGE('',*,*,#497,.F.);
#334=ORIENTED_EDGE('',*,*,#495,.T.);
#335=ORIENTED_EDGE('',*,*,#444,.F.);
#336=ORIENTED_EDGE('',*,*,#496,.T.);
#337=ORIENTED_EDGE('',*,*,#497,.T.);
#338=ORIENTED_EDGE('',*,*,#447,.F.);
#339=EDGE_CURVE('',#498,#499,#606,.F.);
#340=EDGE_CURVE('',#500,#499,#607,.T.);
#341=EDGE_CURVE('',#501,#500,#608,.T.);
#342=EDGE_CURVE('',#498,#501,#609,.T.);
#343=EDGE_CURVE('',#502,#503,#610,.T.);
#344=EDGE_CURVE('',#502,#504,#611,.T.);
#345=EDGE_CURVE('',#504,#505,#612,.T.);
#346=EDGE_CURVE('',#503,#505,#613,.T.);
#347=EDGE_CURVE('',#506,#507,#614,.T.);
#348=EDGE_CURVE('',#506,#508,#615,.T.);
#349=EDGE_CURVE('',#508,#509,#616,.T.);
#350=EDGE_CURVE('',#507,#509,#617,.T.);
#351=EDGE_CURVE('',#510,#511,#618,.T.);
#352=EDGE_CURVE('',#510,#512,#619,.T.);
#353=EDGE_CURVE('',#512,#513,#620,.T.);
#354=EDGE_CURVE('',#511,#513,#621,.T.);
#355=EDGE_CURVE('',#514,#515,#622,.T.);
#356=EDGE_CURVE('',#514,#516,#623,.T.);
#357=EDGE_CURVE('',#516,#517,#624,.T.);
#358=EDGE_CURVE('',#515,#517,#625,.T.);
#359=EDGE_CURVE('',#518,#519,#626,.T.);
#360=EDGE_CURVE('',#518,#520,#627,.T.);
#361=EDGE_CURVE('',#520,#521,#628,.T.);
#362=EDGE_CURVE('',#519,#521,#629,.T.);
#363=EDGE_CURVE('',#522,#523,#630,.T.);
#364=EDGE_CURVE('',#522,#524,#631,.T.);
#365=EDGE_CURVE('',#524,#525,#632,.T.);
#366=EDGE_CURVE('',#523,#525,#633,.T.);
#367=EDGE_CURVE('',#526,#527,#634,.T.);
#368=EDGE_CURVE('',#526,#528,#635,.T.);
#369=EDGE_CURVE('',#528,#529,#636,.T.);
#370=EDGE_CURVE('',#527,#529,#637,.T.);
#371=EDGE_CURVE('',#530,#531,#638,.T.);
#372=EDGE_CURVE('',#532,#530,#639,.T.);
#373=EDGE_CURVE('',#533,#532,#640,.T.);
#374=EDGE_CURVE('',#534,#533,#641,.T.);
#375=EDGE_CURVE('',#534,#535,#642,.T.);
#376=EDGE_CURVE('',#535,#536,#643,.T.);
#377=EDGE_CURVE('',#537,#536,#644,.T.);
#378=EDGE_CURVE('',#538,#537,#645,.T.);
#379=EDGE_CURVE('',#539,#538,#646,.T.);
#380=EDGE_CURVE('',#540,#539,#647,.T.);
#381=EDGE_CURVE('',#541,#540,#648,.T.);
#382=EDGE_CURVE('',#541,#542,#649,.T.);
#383=EDGE_CURVE('',#542,#543,#650,.T.);
#384=EDGE_CURVE('',#543,#544,#651,.T.);
#385=EDGE_CURVE('',#545,#544,#652,.T.);
#386=EDGE_CURVE('',#546,#545,#653,.T.);
#387=EDGE_CURVE('',#547,#546,#654,.T.);
#388=EDGE_CURVE('',#531,#547,#655,.T.);
#389=EDGE_CURVE('',#548,#549,#656,.F.);
#390=EDGE_CURVE('',#548,#550,#657,.T.);
#391=EDGE_CURVE('',#550,#551,#658,.T.);
#392=EDGE_CURVE('',#551,#549,#659,.T.);
#393=EDGE_CURVE('',#552,#553,#660,.T.);
#394=EDGE_CURVE('',#552,#554,#661,.T.);
#395=EDGE_CURVE('',#554,#555,#662,.T.);
#396=EDGE_CURVE('',#553,#555,#663,.T.);
#397=EDGE_CURVE('',#556,#557,#664,.T.);
#398=EDGE_CURVE('',#556,#558,#665,.T.);
#399=EDGE_CURVE('',#558,#559,#666,.T.);
#400=EDGE_CURVE('',#557,#559,#667,.T.);
#401=EDGE_CURVE('',#560,#561,#668,.T.);
#402=EDGE_CURVE('',#560,#562,#669,.T.);
#403=EDGE_CURVE('',#562,#563,#670,.T.);
#404=EDGE_CURVE('',#561,#563,#671,.T.);
#405=EDGE_CURVE('',#564,#565,#672,.T.);
#406=EDGE_CURVE('',#564,#566,#673,.T.);
#407=EDGE_CURVE('',#566,#567,#674,.T.);
#408=EDGE_CURVE('',#565,#567,#675,.T.);
#409=EDGE_CURVE('',#568,#569,#676,.T.);
#410=EDGE_CURVE('',#568,#570,#677,.T.);
#411=EDGE_CURVE('',#570,#571,#678,.T.);
#412=EDGE_CURVE('',#569,#571,#679,.T.);
#413=EDGE_CURVE('',#572,#573,#680,.T.);
#414=EDGE_CURVE('',#572,#574,#681,.T.);
#415=EDGE_CURVE('',#574,#575,#682,.T.);
#416=EDGE_CURVE('',#573,#575,#683,.T.);
#417=EDGE_CURVE('',#576,#577,#684,.T.);
#418=EDGE_CURVE('',#576,#578,#685,.T.);
#419=EDGE_CURVE('',#578,#579,#686,.T.);
#420=EDGE_CURVE('',#579,#580,#687,.T.);
#421=EDGE_CURVE('',#580,#581,#688,.T.);
#422=EDGE_CURVE('',#581,#582,#689,.T.);
#423=EDGE_CURVE('',#582,#583,#690,.T.);
#424=EDGE_CURVE('',#577,#583,#691,.T.);
#425=EDGE_CURVE('',#584,#585,#692,.T.);
#426=EDGE_CURVE('',#584,#586,#693,.T.);
#427=EDGE_CURVE('',#586,#587,#694,.T.);
#428=EDGE_CURVE('',#585,#587,#695,.T.);
#429=EDGE_CURVE('',#535,#577,#696,.T.);
#430=EDGE_CURVE('',#534,#576,#697,.T.);
#431=EDGE_CURVE('',#588,#531,#698,.T.);
#432=EDGE_CURVE('',#547,#578,#699,.T.);
#433=EDGE_CURVE('',#589,#533,#700,.T.);
#434=EDGE_CURVE('',#589,#588,#701,.T.);
#435=EDGE_CURVE('',#590,#590,#15,.T.);
#436=EDGE_CURVE('',#546,#579,#702,.T.);
#437=EDGE_CURVE('',#545,#580,#703,.T.);
#438=EDGE_CURVE('',#591,#541,#704,.T.);
#439=EDGE_CURVE('',#540,#581,#705,.T.);
#440=EDGE_CURVE('',#592,#544,#706,.T.);
#441=EDGE_CURVE('',#592,#591,#707,.T.);
#442=EDGE_CURVE('',#593,#593,#16,.T.);
#443=EDGE_CURVE('',#594,#539,#708,.T.);
#444=EDGE_CURVE('',#594,#595,#709,.T.);
#445=EDGE_CURVE('',#595,#582,#710,.T.);
#446=EDGE_CURVE('',#596,#596,#17,.T.);
#447=EDGE_CURVE('',#595,#597,#711,.T.);
#448=EDGE_CURVE('',#597,#537,#712,.T.);
#449=EDGE_CURVE('',#536,#583,#713,.T.);
#450=EDGE_CURVE('',#515,#574,#714,.T.);
#451=EDGE_CURVE('',#514,#572,#715,.T.);
#452=EDGE_CURVE('',#516,#573,#716,.T.);
#453=EDGE_CURVE('',#517,#575,#717,.T.);
#454=EDGE_CURVE('',#511,#570,#718,.T.);
#455=EDGE_CURVE('',#510,#568,#719,.T.);
#456=EDGE_CURVE('',#512,#569,#720,.T.);
#457=EDGE_CURVE('',#513,#571,#721,.T.);
#458=EDGE_CURVE('',#519,#566,#722,.T.);
#459=EDGE_CURVE('',#518,#564,#723,.T.);
#460=EDGE_CURVE('',#520,#565,#724,.T.);
#461=EDGE_CURVE('',#521,#567,#725,.T.);
#462=EDGE_CURVE('',#507,#562,#726,.T.);
#463=EDGE_CURVE('',#506,#560,#727,.T.);
#464=EDGE_CURVE('',#508,#561,#728,.T.);
#465=EDGE_CURVE('',#509,#563,#729,.T.);
#466=EDGE_CURVE('',#523,#558,#730,.T.);
#467=EDGE_CURVE('',#522,#556,#731,.T.);
#468=EDGE_CURVE('',#524,#557,#732,.T.);
#469=EDGE_CURVE('',#525,#559,#733,.T.);
#470=EDGE_CURVE('',#503,#554,#734,.T.);
#471=EDGE_CURVE('',#502,#552,#735,.T.);
#472=EDGE_CURVE('',#504,#553,#736,.T.);
#473=EDGE_CURVE('',#505,#555,#737,.T.);
#474=EDGE_CURVE('',#527,#586,#738,.T.);
#475=EDGE_CURVE('',#526,#584,#739,.T.);
#476=EDGE_CURVE('',#528,#585,#740,.T.);
#477=EDGE_CURVE('',#529,#587,#741,.T.);
#478=EDGE_CURVE('',#550,#501,#742,.T.);
#479=EDGE_CURVE('',#498,#548,#743,.F.);
#480=EDGE_CURVE('',#551,#500,#744,.T.);
#481=EDGE_CURVE('',#499,#549,#745,.F.);
#482=EDGE_CURVE('',#598,#598,#18,.T.);
#483=EDGE_CURVE('',#599,#599,#19,.T.);
#484=EDGE_CURVE('',#600,#600,#20,.T.);
#485=EDGE_CURVE('',#591,#601,#746,.T.);
#486=EDGE_CURVE('',#601,#542,#747,.T.);
#487=EDGE_CURVE('',#602,#543,#748,.T.);
#488=EDGE_CURVE('',#602,#592,#749,.T.);
#489=EDGE_CURVE('',#601,#602,#750,.T.);
#490=EDGE_CURVE('',#603,#532,#751,.T.);
#491=EDGE_CURVE('',#589,#603,#752,.T.);
#492=EDGE_CURVE('',#604,#530,#753,.T.);
#493=EDGE_CURVE('',#603,#604,#754,.T.);
#494=EDGE_CURVE('',#604,#588,#755,.T.);
#495=EDGE_CURVE('',#605,#538,#756,.T.);
#496=EDGE_CURVE('',#594,#605,#757,.T.);
#497=EDGE_CURVE('',#605,#597,#758,.T.);
#498=VERTEX_POINT('',#1555);
#499=VERTEX_POINT('',#1556);
#500=VERTEX_POINT('',#1558);
#501=VERTEX_POINT('',#1560);
#502=VERTEX_POINT('',#1563);
#503=VERTEX_POINT('',#1564);
#504=VERTEX_POINT('',#1566);
#505=VERTEX_POINT('',#1568);
#506=VERTEX_POINT('',#1571);
#507=VERTEX_POINT('',#1572);
#508=VERTEX_POINT('',#1574);
#509=VERTEX_POINT('',#1576);
#510=VERTEX_POINT('',#1579);
#511=VERTEX_POINT('',#1580);
#512=VERTEX_POINT('',#1582);
#513=VERTEX_POINT('',#1584);
#514=VERTEX_POINT('',#1587);
#515=VERTEX_POINT('',#1588);
#516=VERTEX_POINT('',#1590);
#517=VERTEX_POINT('',#1592);
#518=VERTEX_POINT('',#1595);
#519=VERTEX_POINT('',#1596);
#520=VERTEX_POINT('',#1598);
#521=VERTEX_POINT('',#1600);
#522=VERTEX_POINT('',#1603);
#523=VERTEX_POINT('',#1604);
#524=VERTEX_POINT('',#1606);
#525=VERTEX_POINT('',#1608);
#526=VERTEX_POINT('',#1611);
#527=VERTEX_POINT('',#1612);
#528=VERTEX_POINT('',#1614);
#529=VERTEX_POINT('',#1616);
#530=VERTEX_POINT('',#1619);
#531=VERTEX_POINT('',#1620);
#532=VERTEX_POINT('',#1622);
#533=VERTEX_POINT('',#1624);
#534=VERTEX_POINT('',#1626);
#535=VERTEX_POINT('',#1628);
#536=VERTEX_POINT('',#1630);
#537=VERTEX_POINT('',#1632);
#538=VERTEX_POINT('',#1634);
#539=VERTEX_POINT('',#1636);
#540=VERTEX_POINT('',#1638);
#541=VERTEX_POINT('',#1640);
#542=VERTEX_POINT('',#1642);
#543=VERTEX_POINT('',#1644);
#544=VERTEX_POINT('',#1646);
#545=VERTEX_POINT('',#1648);
#546=VERTEX_POINT('',#1650);
#547=VERTEX_POINT('',#1652);
#548=VERTEX_POINT('',#1656);
#549=VERTEX_POINT('',#1657);
#550=VERTEX_POINT('',#1659);
#551=VERTEX_POINT('',#1661);
#552=VERTEX_POINT('',#1664);
#553=VERTEX_POINT('',#1665);
#554=VERTEX_POINT('',#1667);
#555=VERTEX_POINT('',#1669);
#556=VERTEX_POINT('',#1672);
#557=VERTEX_POINT('',#1673);
#558=VERTEX_POINT('',#1675);
#559=VERTEX_POINT('',#1677);
#560=VERTEX_POINT('',#1680);
#561=VERTEX_POINT('',#1681);
#562=VERTEX_POINT('',#1683);
#563=VERTEX_POINT('',#1685);
#564=VERTEX_POINT('',#1688);
#565=VERTEX_POINT('',#1689);
#566=VERTEX_POINT('',#1691);
#567=VERTEX_POINT('',#1693);
#568=VERTEX_POINT('',#1696);
#569=VERTEX_POINT('',#1697);
#570=VERTEX_POINT('',#1699);
#571=VERTEX_POINT('',#1701);
#572=VERTEX_POINT('',#1704);
#573=VERTEX_POINT('',#1705);
#574=VERTEX_POINT('',#1707);
#575=VERTEX_POINT('',#1709);
#576=VERTEX_POINT('',#1712);
#577=VERTEX_POINT('',#1713);
#578=VERTEX_POINT('',#1715);
#579=VERTEX_POINT('',#1717);
#580=VERTEX_POINT('',#1719);
#581=VERTEX_POINT('',#1721);
#582=VERTEX_POINT('',#1723);
#583=VERTEX_POINT('',#1725);
#584=VERTEX_POINT('',#1728);
#585=VERTEX_POINT('',#1729);
#586=VERTEX_POINT('',#1731);
#587=VERTEX_POINT('',#1733);
#588=VERTEX_POINT('',#1740);
#589=VERTEX_POINT('',#1743);
#590=VERTEX_POINT('',#1746);
#591=VERTEX_POINT('',#1753);
#592=VERTEX_POINT('',#1756);
#593=VERTEX_POINT('',#1759);
#594=VERTEX_POINT('',#1762);
#595=VERTEX_POINT('',#1764);
#596=VERTEX_POINT('',#1768);
#597=VERTEX_POINT('',#1770);
#598=VERTEX_POINT('',#1840);
#599=VERTEX_POINT('',#1844);
#600=VERTEX_POINT('',#1848);
#601=VERTEX_POINT('',#1852);
#602=VERTEX_POINT('',#1856);
#603=VERTEX_POINT('',#1863);
#604=VERTEX_POINT('',#1867);
#605=VERTEX_POINT('',#1874);
#606=LINE('',#1554,#759);
#607=LINE('',#1557,#760);
#608=LINE('',#1559,#761);
#609=LINE('',#1561,#762);
#610=LINE('',#1562,#763);
#611=LINE('',#1565,#764);
#612=LINE('',#1567,#765);
#613=LINE('',#1569,#766);
#614=LINE('',#1570,#767);
#615=LINE('',#1573,#768);
#616=LINE('',#1575,#769);
#617=LINE('',#1577,#770);
#618=LINE('',#1578,#771);
#619=LINE('',#1581,#772);
#620=LINE('',#1583,#773);
#621=LINE('',#1585,#774);
#622=LINE('',#1586,#775);
#623=LINE('',#1589,#776);
#624=LINE('',#1591,#777);
#625=LINE('',#1593,#778);
#626=LINE('',#1594,#779);
#627=LINE('',#1597,#780);
#628=LINE('',#1599,#781);
#629=LINE('',#1601,#782);
#630=LINE('',#1602,#783);
#631=LINE('',#1605,#784);
#632=LINE('',#1607,#785);
#633=LINE('',#1609,#786);
#634=LINE('',#1610,#787);
#635=LINE('',#1613,#788);
#636=LINE('',#1615,#789);
#637=LINE('',#1617,#790);
#638=LINE('',#1618,#791);
#639=LINE('',#1621,#792);
#640=LINE('',#1623,#793);
#641=LINE('',#1625,#794);
#642=LINE('',#1627,#795);
#643=LINE('',#1629,#796);
#644=LINE('',#1631,#797);
#645=LINE('',#1633,#798);
#646=LINE('',#1635,#799);
#647=LINE('',#1637,#800);
#648=LINE('',#1639,#801);
#649=LINE('',#1641,#802);
#650=LINE('',#1643,#803);
#651=LINE('',#1645,#804);
#652=LINE('',#1647,#805);
#653=LINE('',#1649,#806);
#654=LINE('',#1651,#807);
#655=LINE('',#1653,#808);
#656=LINE('',#1655,#809);
#657=LINE('',#1658,#810);
#658=LINE('',#1660,#811);
#659=LINE('',#1662,#812);
#660=LINE('',#1663,#813);
#661=LINE('',#1666,#814);
#662=LINE('',#1668,#815);
#663=LINE('',#1670,#816);
#664=LINE('',#1671,#817);
#665=LINE('',#1674,#818);
#666=LINE('',#1676,#819);
#667=LINE('',#1678,#820);
#668=LINE('',#1679,#821);
#669=LINE('',#1682,#822);
#670=LINE('',#1684,#823);
#671=LINE('',#1686,#824);
#672=LINE('',#1687,#825);
#673=LINE('',#1690,#826);
#674=LINE('',#1692,#827);
#675=LINE('',#1694,#828);
#676=LINE('',#1695,#829);
#677=LINE('',#1698,#830);
#678=LINE('',#1700,#831);
#679=LINE('',#1702,#832);
#680=LINE('',#1703,#833);
#681=LINE('',#1706,#834);
#682=LINE('',#1708,#835);
#683=LINE('',#1710,#836);
#684=LINE('',#1711,#837);
#685=LINE('',#1714,#838);
#686=LINE('',#1716,#839);
#687=LINE('',#1718,#840);
#688=LINE('',#1720,#841);
#689=LINE('',#1722,#842);
#690=LINE('',#1724,#843);
#691=LINE('',#1726,#844);
#692=LINE('',#1727,#845);
#693=LINE('',#1730,#846);
#694=LINE('',#1732,#847);
#695=LINE('',#1734,#848);
#696=LINE('',#1736,#849);
#697=LINE('',#1737,#850);
#698=LINE('',#1739,#851);
#699=LINE('',#1741,#852);
#700=LINE('',#1742,#853);
#701=LINE('',#1744,#854);
#702=LINE('',#1748,#855);
#703=LINE('',#1750,#856);
#704=LINE('',#1752,#857);
#705=LINE('',#1754,#858);
#706=LINE('',#1755,#859);
#707=LINE('',#1757,#860);
#708=LINE('',#1761,#861);
#709=LINE('',#1763,#862);
#710=LINE('',#1765,#863);
#711=LINE('',#1769,#864);
#712=LINE('',#1771,#865);
#713=LINE('',#1772,#866);
#714=LINE('',#1775,#867);
#715=LINE('',#1776,#868);
#716=LINE('',#1778,#869);
#717=LINE('',#1780,#870);
#718=LINE('',#1783,#871);
#719=LINE('',#1784,#872);
#720=LINE('',#1786,#873);
#721=LINE('',#1788,#874);
#722=LINE('',#1791,#875);
#723=LINE('',#1792,#876);
#724=LINE('',#1794,#877);
#725=LINE('',#1796,#878);
#726=LINE('',#1799,#879);
#727=LINE('',#1800,#880);
#728=LINE('',#1802,#881);
#729=LINE('',#1804,#882);
#730=LINE('',#1807,#883);
#731=LINE('',#1808,#884);
#732=LINE('',#1810,#885);
#733=LINE('',#1812,#886);
#734=LINE('',#1815,#887);
#735=LINE('',#1816,#888);
#736=LINE('',#1818,#889);
#737=LINE('',#1820,#890);
#738=LINE('',#1823,#891);
#739=LINE('',#1824,#892);
#740=LINE('',#1826,#893);
#741=LINE('',#1828,#894);
#742=LINE('',#1831,#895);
#743=LINE('',#1832,#896);
#744=LINE('',#1834,#897);
#745=LINE('',#1836,#898);
#746=LINE('',#1851,#899);
#747=LINE('',#1853,#900);
#748=LINE('',#1855,#901);
#749=LINE('',#1857,#902);
#750=LINE('',#1859,#903);
#751=LINE('',#1862,#904);
#752=LINE('',#1864,#905);
#753=LINE('',#1866,#906);
#754=LINE('',#1868,#907);
#755=LINE('',#1870,#908);
#756=LINE('',#1873,#909);
#757=LINE('',#1875,#910);
#758=LINE('',#1877,#911);
#759=VECTOR('',#1271,1.);
#760=VECTOR('',#1272,1.);
#761=VECTOR('',#1273,1.);
#762=VECTOR('',#1274,1.);
#763=VECTOR('',#1275,1.);
#764=VECTOR('',#1276,1.);
#765=VECTOR('',#1277,1.);
#766=VECTOR('',#1278,1.);
#767=VECTOR('',#1279,1.);
#768=VECTOR('',#1280,1.);
#769=VECTOR('',#1281,1.);
#770=VECTOR('',#1282,1.);
#771=VECTOR('',#1283,1.);
#772=VECTOR('',#1284,1.);
#773=VECTOR('',#1285,1.);
#774=VECTOR('',#1286,1.);
#775=VECTOR('',#1287,1.);
#776=VECTOR('',#1288,1.);
#777=VECTOR('',#1289,1.);
#778=VECTOR('',#1290,1.);
#779=VECTOR('',#1291,1.);
#780=VECTOR('',#1292,1.);
#781=VECTOR('',#1293,1.);
#782=VECTOR('',#1294,1.);
#783=VECTOR('',#1295,1.);
#784=VECTOR('',#1296,1.);
#785=VECTOR('',#1297,1.);
#786=VECTOR('',#1298,1.);
#787=VECTOR('',#1299,1.);
#788=VECTOR('',#1300,1.);
#789=VECTOR('',#1301,1.);
#790=VECTOR('',#1302,1.);
#791=VECTOR('',#1303,1.);
#792=VECTOR('',#1304,1.);
#793=VECTOR('',#1305,1.);
#794=VECTOR('',#1306,1.);
#795=VECTOR('',#1307,1.);
#796=VECTOR('',#1308,1.);
#797=VECTOR('',#1309,1.);
#798=VECTOR('',#1310,1.);
#799=VECTOR('',#1311,1.);
#800=VECTOR('',#1312,1.);
#801=VECTOR('',#1313,1.);
#802=VECTOR('',#1314,1.);
#803=VECTOR('',#1315,1.);
#804=VECTOR('',#1316,1.);
#805=VECTOR('',#1317,1.);
#806=VECTOR('',#1318,1.);
#807=VECTOR('',#1319,1.);
#808=VECTOR('',#1320,1.);
#809=VECTOR('',#1323,1.);
#810=VECTOR('',#1324,1.);
#811=VECTOR('',#1325,1.);
#812=VECTOR('',#1326,1.);
#813=VECTOR('',#1327,1.);
#814=VECTOR('',#1328,1.);
#815=VECTOR('',#1329,1.);
#816=VECTOR('',#1330,1.);
#817=VECTOR('',#1331,1.);
#818=VECTOR('',#1332,1.);
#819=VECTOR('',#1333,1.);
#820=VECTOR('',#1334,1.);
#821=VECTOR('',#1335,1.);
#822=VECTOR('',#1336,1.);
#823=VECTOR('',#1337,1.);
#824=VECTOR('',#1338,1.);
#825=VECTOR('',#1339,1.);
#826=VECTOR('',#1340,1.);
#827=VECTOR('',#1341,1.);
#828=VECTOR('',#1342,1.);
#829=VECTOR('',#1343,1.);
#830=VECTOR('',#1344,1.);
#831=VECTOR('',#1345,1.);
#832=VECTOR('',#1346,1.);
#833=VECTOR('',#1347,1.);
#834=VECTOR('',#1348,1.);
#835=VECTOR('',#1349,1.);
#836=VECTOR('',#1350,1.);
#837=VECTOR('',#1351,1.);
#838=VECTOR('',#1352,1.);
#839=VECTOR('',#1353,1.);
#840=VECTOR('',#1354,1.);
#841=VECTOR('',#1355,1.);
#842=VECTOR('',#1356,1.);
#843=VECTOR('',#1357,1.);
#844=VECTOR('',#1358,1.);
#845=VECTOR('',#1359,1.);
#846=VECTOR('',#1360,1.);
#847=VECTOR('',#1361,1.);
#848=VECTOR('',#1362,1.);
#849=VECTOR('',#1365,1.);
#850=VECTOR('',#1366,1.);
#851=VECTOR('',#1369,1.);
#852=VECTOR('',#1370,1.);
#853=VECTOR('',#1371,1.);
#854=VECTOR('',#1372,1.);
#855=VECTOR('',#1377,1.);
#856=VECTOR('',#1380,1.);
#857=VECTOR('',#1383,1.);
#858=VECTOR('',#1384,1.);
#859=VECTOR('',#1385,1.);
#860=VECTOR('',#1386,1.);
#861=VECTOR('',#1391,1.);
#862=VECTOR('',#1392,1.);
#863=VECTOR('',#1393,1.);
#864=VECTOR('',#1398,1.);
#865=VECTOR('',#1399,1.);
#866=VECTOR('',#1400,1.);
#867=VECTOR('',#1405,1.);
#868=VECTOR('',#1406,1.);
#869=VECTOR('',#1409,1.);
#870=VECTOR('',#1412,1.);
#871=VECTOR('',#1417,1.);
#872=VECTOR('',#1418,1.);
#873=VECTOR('',#1421,1.);
#874=VECTOR('',#1424,1.);
#875=VECTOR('',#1429,1.);
#876=VECTOR('',#1430,1.);
#877=VECTOR('',#1433,1.);
#878=VECTOR('',#1436,1.);
#879=VECTOR('',#1441,1.);
#880=VECTOR('',#1442,1.);
#881=VECTOR('',#1445,1.);
#882=VECTOR('',#1448,1.);
#883=VECTOR('',#1453,1.);
#884=VECTOR('',#1454,1.);
#885=VECTOR('',#1457,1.);
#886=VECTOR('',#1460,1.);
#887=VECTOR('',#1465,1.);
#888=VECTOR('',#1466,1.);
#889=VECTOR('',#1469,1.);
#890=VECTOR('',#1472,1.);
#891=VECTOR('',#1477,1.);
#892=VECTOR('',#1478,1.);
#893=VECTOR('',#1481,1.);
#894=VECTOR('',#1484,1.);
#895=VECTOR('',#1489,1.);
#896=VECTOR('',#1490,1.);
#897=VECTOR('',#1493,1.);
#898=VECTOR('',#1496,1.);
#899=VECTOR('',#1519,1.);
#900=VECTOR('',#1520,1.);
#901=VECTOR('',#1523,1.);
#902=VECTOR('',#1524,1.);
#903=VECTOR('',#1527,1.);
#904=VECTOR('',#1532,1.);
#905=VECTOR('',#1533,1.);
#906=VECTOR('',#1536,1.);
#907=VECTOR('',#1537,1.);
#908=VECTOR('',#1540,1.);
#909=VECTOR('',#1545,1.);
#910=VECTOR('',#1546,1.);
#911=VECTOR('',#1549,1.);
#912=EDGE_LOOP('',(#21,#22,#23,#24));
#913=EDGE_LOOP('',(#25,#26,#27,#28));
#914=EDGE_LOOP('',(#29,#30,#31,#32));
#915=EDGE_LOOP('',(#33,#34,#35,#36));
#916=EDGE_LOOP('',(#37,#38,#39,#40));
#917=EDGE_LOOP('',(#41,#42,#43,#44));
#918=EDGE_LOOP('',(#45,#46,#47,#48));
#919=EDGE_LOOP('',(#49,#50,#51,#52));
#920=EDGE_LOOP('',(#53,#54,#55,#56,#57,#58,#59,#60,#61,#62,#63,#64,#65,
#66,#67,#68,#69,#70));
#921=EDGE_LOOP('',(#71,#72,#73,#74));
#922=EDGE_LOOP('',(#75,#76,#77,#78));
#923=EDGE_LOOP('',(#79,#80,#81,#82));
#924=EDGE_LOOP('',(#83,#84,#85,#86));
#925=EDGE_LOOP('',(#87,#88,#89,#90));
#926=EDGE_LOOP('',(#91,#92,#93,#94));
#927=EDGE_LOOP('',(#95,#96,#97,#98));
#928=EDGE_LOOP('',(#99,#100,#101,#102,#103,#104,#105,#106));
#929=EDGE_LOOP('',(#107,#108,#109,#110));
#930=EDGE_LOOP('',(#111,#112,#113,#114));
#931=EDGE_LOOP('',(#115,#116,#117,#118,#119,#120,#121,#122));
#932=EDGE_LOOP('',(#123));
#933=EDGE_LOOP('',(#124,#125,#126,#127));
#934=EDGE_LOOP('',(#128,#129,#130,#131));
#935=EDGE_LOOP('',(#132,#133,#134,#135,#136,#137,#138,#139));
#936=EDGE_LOOP('',(#140));
#937=EDGE_LOOP('',(#141,#142,#143,#144,#145,#146));
#938=EDGE_LOOP('',(#147));
#939=EDGE_LOOP('',(#148,#149,#150,#151,#152,#153));
#940=EDGE_LOOP('',(#154,#155,#156,#157));
#941=EDGE_LOOP('',(#158,#159,#160,#161));
#942=EDGE_LOOP('',(#162,#163,#164,#165));
#943=EDGE_LOOP('',(#166,#167,#168,#169));
#944=EDGE_LOOP('',(#170,#171,#172,#173));
#945=EDGE_LOOP('',(#174,#175,#176,#177));
#946=EDGE_LOOP('',(#178,#179,#180,#181));
#947=EDGE_LOOP('',(#182,#183,#184,#185));
#948=EDGE_LOOP('',(#186,#187,#188,#189));
#949=EDGE_LOOP('',(#190,#191,#192,#193));
#950=EDGE_LOOP('',(#194,#195,#196,#197));
#951=EDGE_LOOP('',(#198,#199,#200,#201));
#952=EDGE_LOOP('',(#202,#203,#204,#205));
#953=EDGE_LOOP('',(#206,#207,#208,#209));
#954=EDGE_LOOP('',(#210,#211,#212,#213));
#955=EDGE_LOOP('',(#214,#215,#216,#217));
#956=EDGE_LOOP('',(#218,#219,#220,#221));
#957=EDGE_LOOP('',(#222,#223,#224,#225));
#958=EDGE_LOOP('',(#226,#227,#228,#229));
#959=EDGE_LOOP('',(#230,#231,#232,#233));
#960=EDGE_LOOP('',(#234,#235,#236,#237));
#961=EDGE_LOOP('',(#238,#239,#240,#241));
#962=EDGE_LOOP('',(#242,#243,#244,#245));
#963=EDGE_LOOP('',(#246,#247,#248,#249));
#964=EDGE_LOOP('',(#250,#251,#252,#253));
#965=EDGE_LOOP('',(#254,#255,#256,#257));
#966=EDGE_LOOP('',(#258,#259,#260,#261));
#967=EDGE_LOOP('',(#262,#263,#264,#265));
#968=EDGE_LOOP('',(#266,#267,#268,#269));
#969=EDGE_LOOP('',(#270,#271,#272,#273));
#970=EDGE_LOOP('',(#274,#275,#276,#277));
#971=EDGE_LOOP('',(#278,#279,#280,#281));
#972=EDGE_LOOP('',(#282,#283,#284,#285));
#973=EDGE_LOOP('',(#286));
#974=EDGE_LOOP('',(#287));
#975=EDGE_LOOP('',(#288));
#976=EDGE_LOOP('',(#289));
#977=EDGE_LOOP('',(#290));
#978=EDGE_LOOP('',(#291));
#979=EDGE_LOOP('',(#292));
#980=EDGE_LOOP('',(#293));
#981=EDGE_LOOP('',(#294));
#982=EDGE_LOOP('',(#295,#296,#297,#298));
#983=EDGE_LOOP('',(#299,#300,#301,#302));
#984=EDGE_LOOP('',(#303,#304,#305,#306));
#985=EDGE_LOOP('',(#307,#308,#309,#310));
#986=EDGE_LOOP('',(#311,#312,#313,#314));
#987=EDGE_LOOP('',(#315,#316,#317,#318));
#988=EDGE_LOOP('',(#319,#320,#321,#322));
#989=EDGE_LOOP('',(#323,#324,#325,#326));
#990=EDGE_LOOP('',(#327,#328,#329,#330));
#991=EDGE_LOOP('',(#331,#332,#333,#334));
#992=EDGE_LOOP('',(#335,#336,#337,#338));
#993=FACE_BOUND('',#912,.T.);
#994=FACE_BOUND('',#913,.T.);
#995=FACE_BOUND('',#914,.T.);
#996=FACE_BOUND('',#915,.T.);
#997=FACE_BOUND('',#916,.T.);
#998=FACE_BOUND('',#917,.T.);
#999=FACE_BOUND('',#918,.T.);
#1000=FACE_BOUND('',#919,.T.);
#1001=FACE_BOUND('',#920,.T.);
#1002=FACE_BOUND('',#921,.T.);
#1003=FACE_BOUND('',#922,.T.);
#1004=FACE_BOUND('',#923,.T.);
#1005=FACE_BOUND('',#924,.T.);
#1006=FACE_BOUND('',#925,.T.);
#1007=FACE_BOUND('',#926,.T.);
#1008=FACE_BOUND('',#927,.T.);
#1009=FACE_BOUND('',#928,.T.);
#1010=FACE_BOUND('',#929,.T.);
#1011=FACE_BOUND('',#930,.T.);
#1012=FACE_BOUND('',#931,.T.);
#1013=FACE_BOUND('',#932,.T.);
#1014=FACE_BOUND('',#933,.T.);
#1015=FACE_BOUND('',#934,.T.);
#1016=FACE_BOUND('',#935,.T.);
#1017=FACE_BOUND('',#936,.T.);
#1018=FACE_BOUND('',#937,.T.);
#1019=FACE_BOUND('',#938,.T.);
#1020=FACE_BOUND('',#939,.T.);
#1021=FACE_BOUND('',#940,.T.);
#1022=FACE_BOUND('',#941,.T.);
#1023=FACE_BOUND('',#942,.T.);
#1024=FACE_BOUND('',#943,.T.);
#1025=FACE_BOUND('',#944,.T.);
#1026=FACE_BOUND('',#945,.T.);
#1027=FACE_BOUND('',#946,.T.);
#1028=FACE_BOUND('',#947,.T.);
#1029=FACE_BOUND('',#948,.T.);
#1030=FACE_BOUND('',#949,.T.);
#1031=FACE_BOUND('',#950,.T.);
#1032=FACE_BOUND('',#951,.T.);
#1033=FACE_BOUND('',#952,.T.);
#1034=FACE_BOUND('',#953,.T.);
#1035=FACE_BOUND('',#954,.T.);
#1036=FACE_BOUND('',#955,.T.);
#1037=FACE_BOUND('',#956,.T.);
#1038=FACE_BOUND('',#957,.T.);
#1039=FACE_BOUND('',#958,.T.);
#1040=FACE_BOUND('',#959,.T.);
#1041=FACE_BOUND('',#960,.T.);
#1042=FACE_BOUND('',#961,.T.);
#1043=FACE_BOUND('',#962,.T.);
#1044=FACE_BOUND('',#963,.T.);
#1045=FACE_BOUND('',#964,.T.);
#1046=FACE_BOUND('',#965,.T.);
#1047=FACE_BOUND('',#966,.T.);
#1048=FACE_BOUND('',#967,.T.);
#1049=FACE_BOUND('',#968,.T.);
#1050=FACE_BOUND('',#969,.T.);
#1051=FACE_BOUND('',#970,.T.);
#1052=FACE_BOUND('',#971,.T.);
#1053=FACE_BOUND('',#972,.T.);
#1054=FACE_BOUND('',#973,.T.);
#1055=FACE_BOUND('',#974,.T.);
#1056=FACE_BOUND('',#975,.T.);
#1057=FACE_BOUND('',#976,.T.);
#1058=FACE_BOUND('',#977,.T.);
#1059=FACE_BOUND('',#978,.T.);
#1060=FACE_BOUND('',#979,.T.);
#1061=FACE_BOUND('',#980,.T.);
#1062=FACE_BOUND('',#981,.T.);
#1063=FACE_BOUND('',#982,.T.);
#1064=FACE_BOUND('',#983,.T.);
#1065=FACE_BOUND('',#984,.T.);
#1066=FACE_BOUND('',#985,.T.);
#1067=FACE_BOUND('',#986,.T.);
#1068=FACE_BOUND('',#987,.T.);
#1069=FACE_BOUND('',#988,.T.);
#1070=FACE_BOUND('',#989,.T.);
#1071=FACE_BOUND('',#990,.T.);
#1072=FACE_BOUND('',#991,.T.);
#1073=FACE_BOUND('',#992,.T.);
#1074=PLANE('',#1202);
#1075=PLANE('',#1203);
#1076=PLANE('',#1204);
#1077=PLANE('',#1205);
#1078=PLANE('',#1207);
#1079=PLANE('',#1208);
#1080=PLANE('',#1209);
#1081=PLANE('',#1211);
#1082=PLANE('',#1212);
#1083=PLANE('',#1214);
#1084=PLANE('',#1215);
#1085=PLANE('',#1216);
#1086=PLANE('',#1217);
#1087=PLANE('',#1218);
#1088=PLANE('',#1219);
#1089=PLANE('',#1220);
#1090=PLANE('',#1221);
#1091=PLANE('',#1222);
#1092=PLANE('',#1223);
#1093=PLANE('',#1224);
#1094=PLANE('',#1225);
#1095=PLANE('',#1226);
#1096=PLANE('',#1227);
#1097=PLANE('',#1228);
#1098=PLANE('',#1229);
#1099=PLANE('',#1230);
#1100=PLANE('',#1231);
#1101=PLANE('',#1232);
#1102=PLANE('',#1233);
#1103=PLANE('',#1234);
#1104=PLANE('',#1235);
#1105=PLANE('',#1236);
#1106=PLANE('',#1237);
#1107=PLANE('',#1238);
#1108=PLANE('',#1239);
#1109=PLANE('',#1240);
#1110=PLANE('',#1241);
#1111=PLANE('',#1242);
#1112=PLANE('',#1243);
#1113=PLANE('',#1244);
#1114=PLANE('',#1245);
#1115=PLANE('',#1246);
#1116=PLANE('',#1247);
#1117=PLANE('',#1250);
#1118=PLANE('',#1253);
#1119=PLANE('',#1256);
#1120=PLANE('',#1257);
#1121=PLANE('',#1258);
#1122=PLANE('',#1259);
#1123=PLANE('',#1260);
#1124=PLANE('',#1261);
#1125=PLANE('',#1262);
#1126=PLANE('',#1263);
#1127=PLANE('',#1264);
#1128=PLANE('',#1265);
#1129=PLANE('',#1266);
#1130=ADVANCED_FACE('Face appearance 17',(#993,#994,#995,#996,#997,#998,
#999,#1000,#1001),#1074,.F.);
#1131=ADVANCED_FACE('Face appearance 17',(#1002,#1003,#1004,#1005,#1006,
#1007,#1008,#1009,#1010),#1075,.T.);
#1132=ADVANCED_FACE('Face appearance 17',(#1011),#1076,.F.);
#1133=ADVANCED_FACE('Face appearance 17',(#1012,#1013),#1077,.T.);
#1134=ADVANCED_FACE('Face appearance 17',(#1014),#1078,.T.);
#1135=ADVANCED_FACE('Face appearance 17',(#1015),#1079,.T.);
#1136=ADVANCED_FACE('Face appearance 17',(#1016,#1017),#1080,.T.);
#1137=ADVANCED_FACE('Face appearance 17',(#1018),#1081,.T.);
#1138=ADVANCED_FACE('Face appearance 17',(#1019,#1020),#1082,.T.);
#1139=ADVANCED_FACE('Face appearance 17',(#1021),#1083,.F.);
#1140=ADVANCED_FACE('Face appearance 17',(#1022),#1084,.T.);
#1141=ADVANCED_FACE('Face appearance 17',(#1023),#1085,.F.);
#1142=ADVANCED_FACE('Face appearance 17',(#1024),#1086,.F.);
#1143=ADVANCED_FACE('Face appearance 17',(#1025),#1087,.T.);
#1144=ADVANCED_FACE('Face appearance 17',(#1026),#1088,.T.);
#1145=ADVANCED_FACE('Face appearance 17',(#1027),#1089,.F.);
#1146=ADVANCED_FACE('Face appearance 17',(#1028),#1090,.F.);
#1147=ADVANCED_FACE('Face appearance 17',(#1029),#1091,.T.);
#1148=ADVANCED_FACE('Face appearance 17',(#1030),#1092,.T.);
#1149=ADVANCED_FACE('Face appearance 17',(#1031),#1093,.F.);
#1150=ADVANCED_FACE('Face appearance 17',(#1032),#1094,.F.);
#1151=ADVANCED_FACE('Face appearance 17',(#1033),#1095,.T.);
#1152=ADVANCED_FACE('Face appearance 17',(#1034),#1096,.T.);
#1153=ADVANCED_FACE('Face appearance 17',(#1035),#1097,.F.);
#1154=ADVANCED_FACE('Face appearance 17',(#1036),#1098,.F.);
#1155=ADVANCED_FACE('Face appearance 17',(#1037),#1099,.T.);
#1156=ADVANCED_FACE('Face appearance 17',(#1038),#1100,.T.);
#1157=ADVANCED_FACE('Face appearance 17',(#1039),#1101,.F.);
#1158=ADVANCED_FACE('Face appearance 17',(#1040),#1102,.F.);
#1159=ADVANCED_FACE('Face appearance 17',(#1041),#1103,.T.);
#1160=ADVANCED_FACE('Face appearance 17',(#1042),#1104,.T.);
#1161=ADVANCED_FACE('Face appearance 17',(#1043),#1105,.F.);
#1162=ADVANCED_FACE('Face appearance 17',(#1044),#1106,.F.);
#1163=ADVANCED_FACE('Face appearance 17',(#1045),#1107,.T.);
#1164=ADVANCED_FACE('Face appearance 17',(#1046),#1108,.T.);
#1165=ADVANCED_FACE('Face appearance 17',(#1047),#1109,.F.);
#1166=ADVANCED_FACE('Face appearance 17',(#1048),#1110,.F.);
#1167=ADVANCED_FACE('Face appearance 17',(#1049),#1111,.T.);
#1168=ADVANCED_FACE('Face appearance 17',(#1050),#1112,.F.);
#1169=ADVANCED_FACE('Face appearance 17',(#1051),#1113,.F.);
#1170=ADVANCED_FACE('Face appearance 17',(#1052),#1114,.F.);
#1171=ADVANCED_FACE('Face appearance 17',(#1053),#1115,.T.);
#1172=ADVANCED_FACE('Face appearance 17',(#1054),#1116,.T.);
#1173=ADVANCED_FACE('Face appearance 17',(#1055,#1056),#12,.F.);
#1174=ADVANCED_FACE('Face appearance 17',(#1057),#1117,.T.);
#1175=ADVANCED_FACE('Face appearance 17',(#1058,#1059),#13,.F.);
#1176=ADVANCED_FACE('Face appearance 17',(#1060),#1118,.T.);
#1177=ADVANCED_FACE('Face appearance 17',(#1061,#1062),#14,.F.);
#1178=ADVANCED_FACE('Face appearance 17',(#1063),#1119,.T.);
#1179=ADVANCED_FACE('Face appearance 17',(#1064),#1120,.T.);
#1180=ADVANCED_FACE('Face appearance 17',(#1065),#1121,.T.);
#1181=ADVANCED_FACE('Face appearance 17',(#1066),#1122,.T.);
#1182=ADVANCED_FACE('Face appearance 17',(#1067),#1123,.F.);
#1183=ADVANCED_FACE('Face appearance 17',(#1068),#1124,.F.);
#1184=ADVANCED_FACE('Face appearance 17',(#1069),#1125,.F.);
#1185=ADVANCED_FACE('Face appearance 17',(#1070),#1126,.T.);
#1186=ADVANCED_FACE('Face appearance 17',(#1071),#1127,.F.);
#1187=ADVANCED_FACE('Face appearance 17',(#1072),#1128,.F.);
#1188=ADVANCED_FACE('Face appearance 17',(#1073),#1129,.T.);
#1189=CLOSED_SHELL('',(#1130,#1131,#1132,#1133,#1134,#1135,#1136,#1137,
#1138,#1139,#1140,#1141,#1142,#1143,#1144,#1145,#1146,#1147,#1148,#1149,
#1150,#1151,#1152,#1153,#1154,#1155,#1156,#1157,#1158,#1159,#1160,#1161,
#1162,#1163,#1164,#1165,#1166,#1167,#1168,#1169,#1170,#1171,#1172,#1173,
#1174,#1175,#1176,#1177,#1178,#1179,#1180,#1181,#1182,#1183,#1184,#1185,
#1186,#1187,#1188));
#1190=STYLED_ITEM('',(#1191),#1198);
#1191=PRESENTATION_STYLE_ASSIGNMENT((#1192));
#1192=SURFACE_STYLE_USAGE(.BOTH.,#1193);
#1193=SURFACE_SIDE_STYLE('',(#1194));
#1194=SURFACE_STYLE_FILL_AREA(#1195);
#1195=FILL_AREA_STYLE('',(#1196));
#1196=FILL_AREA_STYLE_COLOUR('',#1197);
#1197=COLOUR_RGB('',0.647058823529412,0.647058823529412,0.647058823529412);
#1198=MANIFOLD_SOLID_BREP('Top Plate',#1189);
#1199=SHAPE_DEFINITION_REPRESENTATION(#1885,#1200);
#1200=SHAPE_REPRESENTATION('Top Plate',(#1201),#1880);
#1201=AXIS2_PLACEMENT_3D('',#1552,#1267,#1268);
#1202=AXIS2_PLACEMENT_3D('',#1553,#1269,#1270);
#1203=AXIS2_PLACEMENT_3D('',#1654,#1321,#1322);
#1204=AXIS2_PLACEMENT_3D('',#1735,#1363,#1364);
#1205=AXIS2_PLACEMENT_3D('',#1738,#1367,#1368);
#1206=AXIS2_PLACEMENT_3D('',#1745,#1373,#1374);
#1207=AXIS2_PLACEMENT_3D('',#1747,#1375,#1376);
#1208=AXIS2_PLACEMENT_3D('',#1749,#1378,#1379);
#1209=AXIS2_PLACEMENT_3D('',#1751,#1381,#1382);
#1210=AXIS2_PLACEMENT_3D('',#1758,#1387,#1388);
#1211=AXIS2_PLACEMENT_3D('',#1760,#1389,#1390);
#1212=AXIS2_PLACEMENT_3D('',#1766,#1394,#1395);
#1213=AXIS2_PLACEMENT_3D('',#1767,#1396,#1397);
#1214=AXIS2_PLACEMENT_3D('',#1773,#1401,#1402);
#1215=AXIS2_PLACEMENT_3D('',#1774,#1403,#1404);
#1216=AXIS2_PLACEMENT_3D('',#1777,#1407,#1408);
#1217=AXIS2_PLACEMENT_3D('',#1779,#1410,#1411);
#1218=AXIS2_PLACEMENT_3D('',#1781,#1413,#1414);
#1219=AXIS2_PLACEMENT_3D('',#1782,#1415,#1416);
#1220=AXIS2_PLACEMENT_3D('',#1785,#1419,#1420);
#1221=AXIS2_PLACEMENT_3D('',#1787,#1422,#1423);
#1222=AXIS2_PLACEMENT_3D('',#1789,#1425,#1426);
#1223=AXIS2_PLACEMENT_3D('',#1790,#1427,#1428);
#1224=AXIS2_PLACEMENT_3D('',#1793,#1431,#1432);
#1225=AXIS2_PLACEMENT_3D('',#1795,#1434,#1435);
#1226=AXIS2_PLACEMENT_3D('',#1797,#1437,#1438);
#1227=AXIS2_PLACEMENT_3D('',#1798,#1439,#1440);
#1228=AXIS2_PLACEMENT_3D('',#1801,#1443,#1444);
#1229=AXIS2_PLACEMENT_3D('',#1803,#1446,#1447);
#1230=AXIS2_PLACEMENT_3D('',#1805,#1449,#1450);
#1231=AXIS2_PLACEMENT_3D('',#1806,#1451,#1452);
#1232=AXIS2_PLACEMENT_3D('',#1809,#1455,#1456);
#1233=AXIS2_PLACEMENT_3D('',#1811,#1458,#1459);
#1234=AXIS2_PLACEMENT_3D('',#1813,#1461,#1462);
#1235=AXIS2_PLACEMENT_3D('',#1814,#1463,#1464);
#1236=AXIS2_PLACEMENT_3D('',#1817,#1467,#1468);
#1237=AXIS2_PLACEMENT_3D('',#1819,#1470,#1471);
#1238=AXIS2_PLACEMENT_3D('',#1821,#1473,#1474);
#1239=AXIS2_PLACEMENT_3D('',#1822,#1475,#1476);
#1240=AXIS2_PLACEMENT_3D('',#1825,#1479,#1480);
#1241=AXIS2_PLACEMENT_3D('',#1827,#1482,#1483);
#1242=AXIS2_PLACEMENT_3D('',#1829,#1485,#1486);
#1243=AXIS2_PLACEMENT_3D('',#1830,#1487,#1488);
#1244=AXIS2_PLACEMENT_3D('',#1833,#1491,#1492);
#1245=AXIS2_PLACEMENT_3D('',#1835,#1494,#1495);
#1246=AXIS2_PLACEMENT_3D('',#1837,#1497,#1498);
#1247=AXIS2_PLACEMENT_3D('',#1838,#1499,#1500);
#1248=AXIS2_PLACEMENT_3D('',#1839,#1501,#1502);
#1249=AXIS2_PLACEMENT_3D('',#1841,#1503,#1504);
#1250=AXIS2_PLACEMENT_3D('',#1842,#1505,#1506);
#1251=AXIS2_PLACEMENT_3D('',#1843,#1507,#1508);
#1252=AXIS2_PLACEMENT_3D('',#1845,#1509,#1510);
#1253=AXIS2_PLACEMENT_3D('',#1846,#1511,#1512);
#1254=AXIS2_PLACEMENT_3D('',#1847,#1513,#1514);
#1255=AXIS2_PLACEMENT_3D('',#1849,#1515,#1516);
#1256=AXIS2_PLACEMENT_3D('',#1850,#1517,#1518);
#1257=AXIS2_PLACEMENT_3D('',#1854,#1521,#1522);
#1258=AXIS2_PLACEMENT_3D('',#1858,#1525,#1526);
#1259=AXIS2_PLACEMENT_3D('',#1860,#1528,#1529);
#1260=AXIS2_PLACEMENT_3D('',#1861,#1530,#1531);
#1261=AXIS2_PLACEMENT_3D('',#1865,#1534,#1535);
#1262=AXIS2_PLACEMENT_3D('',#1869,#1538,#1539);
#1263=AXIS2_PLACEMENT_3D('',#1871,#1541,#1542);
#1264=AXIS2_PLACEMENT_3D('',#1872,#1543,#1544);
#1265=AXIS2_PLACEMENT_3D('',#1876,#1547,#1548);
#1266=AXIS2_PLACEMENT_3D('',#1878,#1550,#1551);
#1267=DIRECTION('',(0.,0.,1.));
#1268=DIRECTION('',(1.,0.,0.));
#1269=DIRECTION('',(0.,-1.,0.));
#1270=DIRECTION('',(1.,0.,0.));
#1271=DIRECTION('',(-1.,0.,-3.10048878637499E-16));
#1272=DIRECTION('',(0.,0.,-1.));
#1273=DIRECTION('',(1.,0.,0.));
#1274=DIRECTION('',(0.,0.,1.));
#1275=DIRECTION('',(1.,0.,-2.47817639425258E-16));
#1276=DIRECTION('',(-4.33680868994202E-16,0.,-1.));
#1277=DIRECTION('',(1.,0.,0.));
#1278=DIRECTION('',(-4.33680868994202E-16,0.,-1.));
#1279=DIRECTION('',(1.,0.,-2.47817639425259E-16));
#1280=DIRECTION('',(-4.95635278850516E-16,0.,-1.));
#1281=DIRECTION('',(1.,0.,0.));
#1282=DIRECTION('',(0.,0.,-1.));
#1283=DIRECTION('',(1.,0.,-3.09772049281573E-16));
#1284=DIRECTION('',(-4.95635278850516E-16,0.,-1.));
#1285=DIRECTION('',(1.,0.,0.));
#1286=DIRECTION('',(-4.95635278850516E-16,0.,-1.));
#1287=DIRECTION('',(1.,0.,-2.47817639425258E-16));
#1288=DIRECTION('',(-4.95635278850516E-16,0.,-1.));
#1289=DIRECTION('',(1.,0.,0.));
#1290=DIRECTION('',(-2.47817639425258E-16,0.,-1.));
#1291=DIRECTION('',(1.,0.,-2.47817639425258E-16));
#1292=DIRECTION('',(-4.33680868994202E-16,0.,-1.));
#1293=DIRECTION('',(1.,0.,0.));
#1294=DIRECTION('',(-4.33680868994202E-16,0.,-1.));
#1295=DIRECTION('',(1.,0.,-2.40073338193219E-16));
#1296=DIRECTION('',(-4.95635278850516E-16,0.,-1.));
#1297=DIRECTION('',(1.,0.,0.));
#1298=DIRECTION('',(-4.95635278850516E-16,0.,-1.));
#1299=DIRECTION('',(1.,0.,-2.89120579329468E-16));
#1300=DIRECTION('',(-2.89120579329468E-16,0.,-1.));
#1301=DIRECTION('',(1.,0.,0.));
#1302=DIRECTION('',(-4.33680868994202E-16,0.,-1.));
#1303=DIRECTION('',(-1.,0.,0.));
#1304=DIRECTION('',(0.,0.,-1.));
#1305=DIRECTION('',(1.,0.,0.));
#1306=DIRECTION('',(0.,0.,-1.));
#1307=DIRECTION('',(1.,0.,0.));
#1308=DIRECTION('',(0.,0.,1.));
#1309=DIRECTION('',(-1.,0.,0.));
#1310=DIRECTION('',(0.,0.,1.));
#1311=DIRECTION('',(-1.,0.,0.));
#1312=DIRECTION('',(-4.72033598905254E-16,0.,1.));
#1313=DIRECTION('',(1.,0.,2.65349671277523E-16));
#1314=DIRECTION('',(0.,0.,1.));
#1315=DIRECTION('',(-1.,0.,0.));
#1316=DIRECTION('',(0.,0.,-1.));
#1317=DIRECTION('',(1.,0.,2.65349671277523E-16));
#1318=DIRECTION('',(0.,0.,-1.));
#1319=DIRECTION('',(1.,0.,0.));
#1320=DIRECTION('',(0.,0.,-1.));
#1321=DIRECTION('',(0.,-1.,0.));
#1322=DIRECTION('',(1.,0.,0.));
#1323=DIRECTION('',(-1.,0.,-3.10048878637499E-16));
#1324=DIRECTION('',(0.,0.,1.));
#1325=DIRECTION('',(1.,0.,0.));
#1326=DIRECTION('',(0.,0.,-1.));
#1327=DIRECTION('',(-4.33680868994202E-16,0.,-1.));
#1328=DIRECTION('',(1.,0.,-2.47817639425258E-16));
#1329=DIRECTION('',(-4.33680868994202E-16,0.,-1.));
#1330=DIRECTION('',(1.,0.,0.));
#1331=DIRECTION('',(-4.95635278850516E-16,0.,-1.));
#1332=DIRECTION('',(1.,0.,-2.40073338193219E-16));
#1333=DIRECTION('',(-4.95635278850516E-16,0.,-1.));
#1334=DIRECTION('',(1.,0.,0.));
#1335=DIRECTION('',(-4.95635278850516E-16,0.,-1.));
#1336=DIRECTION('',(1.,0.,-2.47817639425259E-16));
#1337=DIRECTION('',(0.,0.,-1.));
#1338=DIRECTION('',(1.,0.,0.));
#1339=DIRECTION('',(-4.33680868994202E-16,0.,-1.));
#1340=DIRECTION('',(1.,0.,-2.47817639425258E-16));
#1341=DIRECTION('',(-4.33680868994202E-16,0.,-1.));
#1342=DIRECTION('',(1.,0.,0.));
#1343=DIRECTION('',(-4.95635278850516E-16,0.,-1.));
#1344=DIRECTION('',(1.,0.,-3.09772049281573E-16));
#1345=DIRECTION('',(-4.95635278850516E-16,0.,-1.));
#1346=DIRECTION('',(1.,0.,0.));
#1347=DIRECTION('',(-4.95635278850516E-16,0.,-1.));
#1348=DIRECTION('',(1.,0.,-2.47817639425258E-16));
#1349=DIRECTION('',(-2.47817639425258E-16,0.,-1.));
#1350=DIRECTION('',(1.,0.,0.));
#1351=DIRECTION('',(1.,0.,0.));
#1352=DIRECTION('',(0.,0.,-1.));
#1353=DIRECTION('',(1.,0.,0.));
#1354=DIRECTION('',(0.,0.,-1.));
#1355=DIRECTION('',(1.,0.,2.65349671277523E-16));
#1356=DIRECTION('',(-4.72033598905254E-16,0.,1.));
#1357=DIRECTION('',(-1.,0.,0.));
#1358=DIRECTION('',(0.,0.,1.));
#1359=DIRECTION('',(-2.89120579329468E-16,0.,-1.));
#1360=DIRECTION('',(1.,0.,-2.89120579329468E-16));
#1361=DIRECTION('',(-4.33680868994202E-16,0.,-1.));
#1362=DIRECTION('',(1.,0.,0.));
#1363=DIRECTION('',(0.,0.,-1.));
#1364=DIRECTION('',(-1.,0.,0.));
#1365=DIRECTION('',(0.,-1.,0.));
#1366=DIRECTION('',(0.,-1.,0.));
#1367=DIRECTION('',(-1.,0.,0.));
#1368=DIRECTION('',(0.,0.,1.));
#1369=DIRECTION('',(0.,-1.,0.));
#1370=DIRECTION('',(0.,-1.,0.));
#1371=DIRECTION('',(0.,-1.,0.));
#1372=DIRECTION('',(0.,0.,-1.));
#1373=DIRECTION('',(-1.,0.,0.));
#1374=DIRECTION('',(0.,0.,1.));
#1375=DIRECTION('',(0.,0.,-1.));
#1376=DIRECTION('',(-1.,0.,0.));
#1377=DIRECTION('',(0.,-1.,0.));
#1378=DIRECTION('',(-1.,0.,0.));
#1379=DIRECTION('',(0.,0.,1.));
#1380=DIRECTION('',(0.,-1.,0.));
#1381=DIRECTION('',(2.65349671277523E-16,0.,-1.));
#1382=DIRECTION('',(-1.,0.,-2.65349671277523E-16));
#1383=DIRECTION('',(0.,-1.,0.));
#1384=DIRECTION('',(0.,-1.,0.));
#1385=DIRECTION('',(0.,-1.,0.));
#1386=DIRECTION('',(1.,0.,2.65349671277523E-16));
#1387=DIRECTION('',(2.65349671277523E-16,0.,-1.));
#1388=DIRECTION('',(-1.,0.,-2.65349671277523E-16));
#1389=DIRECTION('',(1.,0.,4.72033598905254E-16));
#1390=DIRECTION('',(4.72033598905254E-16,0.,-1.));
#1391=DIRECTION('',(0.,-1.,0.));
#1392=DIRECTION('',(-4.72033598905254E-16,0.,1.));
#1393=DIRECTION('',(0.,-1.,0.));
#1394=DIRECTION('',(0.,0.,1.));
#1395=DIRECTION('',(1.,0.,0.));
#1396=DIRECTION('',(0.,0.,1.));
#1397=DIRECTION('',(1.,0.,0.));
#1398=DIRECTION('',(-1.,0.,0.));
#1399=DIRECTION('',(0.,-1.,0.));
#1400=DIRECTION('',(0.,-1.,0.));
#1401=DIRECTION('',(1.,0.,0.));
#1402=DIRECTION('',(0.,0.,-1.));
#1403=DIRECTION('',(-2.47817639425258E-16,0.,-1.));
#1404=DIRECTION('',(-1.,0.,2.47817639425258E-16));
#1405=DIRECTION('',(0.,-1.,0.));
#1406=DIRECTION('',(0.,-1.,0.));
#1407=DIRECTION('',(-1.,0.,4.95635278850516E-16));
#1408=DIRECTION('',(4.95635278850516E-16,0.,1.));
#1409=DIRECTION('',(0.,-1.,0.));
#1410=DIRECTION('',(0.,0.,-1.));
#1411=DIRECTION('',(-1.,0.,0.));
#1412=DIRECTION('',(0.,-1.,0.));
#1413=DIRECTION('',(-1.,0.,2.47817639425258E-16));
#1414=DIRECTION('',(2.47817639425258E-16,0.,1.));
#1415=DIRECTION('',(-3.09772049281573E-16,0.,-1.));
#1416=DIRECTION('',(-1.,0.,3.09772049281573E-16));
#1417=DIRECTION('',(0.,-1.,0.));
#1418=DIRECTION('',(0.,-1.,0.));
#1419=DIRECTION('',(-1.,0.,4.95635278850516E-16));
#1420=DIRECTION('',(4.95635278850516E-16,0.,1.));
#1421=DIRECTION('',(0.,-1.,0.));
#1422=DIRECTION('',(0.,0.,-1.));
#1423=DIRECTION('',(-1.,0.,0.));
#1424=DIRECTION('',(0.,-1.,0.));
#1425=DIRECTION('',(-1.,0.,4.95635278850516E-16));
#1426=DIRECTION('',(4.95635278850516E-16,0.,1.));
#1427=DIRECTION('',(-2.47817639425258E-16,0.,-1.));
#1428=DIRECTION('',(-1.,0.,2.47817639425258E-16));
#1429=DIRECTION('',(0.,-1.,0.));
#1430=DIRECTION('',(0.,-1.,0.));
#1431=DIRECTION('',(-1.,0.,4.33680868994202E-16));
#1432=DIRECTION('',(4.33680868994202E-16,0.,1.));
#1433=DIRECTION('',(0.,-1.,0.));
#1434=DIRECTION('',(0.,0.,-1.));
#1435=DIRECTION('',(-1.,0.,0.));
#1436=DIRECTION('',(0.,-1.,0.));
#1437=DIRECTION('',(-1.,0.,4.33680868994202E-16));
#1438=DIRECTION('',(4.33680868994202E-16,0.,1.));
#1439=DIRECTION('',(-2.47817639425259E-16,0.,-1.));
#1440=DIRECTION('',(-1.,0.,2.47817639425259E-16));
#1441=DIRECTION('',(0.,-1.,0.));
#1442=DIRECTION('',(0.,-1.,0.));
#1443=DIRECTION('',(-1.,0.,4.95635278850516E-16));
#1444=DIRECTION('',(4.95635278850516E-16,0.,1.));
#1445=DIRECTION('',(0.,-1.,0.));
#1446=DIRECTION('',(0.,0.,-1.));
#1447=DIRECTION('',(-1.,0.,0.));
#1448=DIRECTION('',(0.,-1.,0.));
#1449=DIRECTION('',(-1.,0.,0.));
#1450=DIRECTION('',(0.,0.,1.));
#1451=DIRECTION('',(-2.40073338193219E-16,0.,-1.));
#1452=DIRECTION('',(-1.,0.,2.40073338193219E-16));
#1453=DIRECTION('',(0.,-1.,0.));
#1454=DIRECTION('',(0.,-1.,0.));
#1455=DIRECTION('',(-1.,0.,4.95635278850516E-16));
#1456=DIRECTION('',(4.95635278850516E-16,0.,1.));
#1457=DIRECTION('',(0.,-1.,0.));
#1458=DIRECTION('',(0.,0.,-1.));
#1459=DIRECTION('',(-1.,0.,0.));
#1460=DIRECTION('',(0.,-1.,0.));
#1461=DIRECTION('',(-1.,0.,4.95635278850516E-16));
#1462=DIRECTION('',(4.95635278850516E-16,0.,1.));
#1463=DIRECTION('',(-2.47817639425258E-16,0.,-1.));
#1464=DIRECTION('',(-1.,0.,2.47817639425258E-16));
#1465=DIRECTION('',(0.,-1.,0.));
#1466=DIRECTION('',(0.,-1.,0.));
#1467=DIRECTION('',(-1.,0.,4.33680868994202E-16));
#1468=DIRECTION('',(4.33680868994202E-16,0.,1.));
#1469=DIRECTION('',(0.,-1.,0.));
#1470=DIRECTION('',(0.,0.,-1.));
#1471=DIRECTION('',(-1.,0.,0.));
#1472=DIRECTION('',(0.,-1.,0.));
#1473=DIRECTION('',(-1.,0.,4.33680868994202E-16));
#1474=DIRECTION('',(4.33680868994202E-16,0.,1.));
#1475=DIRECTION('',(-2.89120579329468E-16,0.,-1.));
#1476=DIRECTION('',(-1.,0.,2.89120579329468E-16));
#1477=DIRECTION('',(0.,-1.,0.));
#1478=DIRECTION('',(0.,-1.,0.));
#1479=DIRECTION('',(-1.,0.,2.89120579329468E-16));
#1480=DIRECTION('',(2.89120579329468E-16,0.,1.));
#1481=DIRECTION('',(0.,-1.,0.));
#1482=DIRECTION('',(0.,0.,-1.));
#1483=DIRECTION('',(-1.,0.,0.));
#1484=DIRECTION('',(0.,-1.,0.));
#1485=DIRECTION('',(-1.,0.,4.33680868994202E-16));
#1486=DIRECTION('',(4.33680868994202E-16,0.,1.));
#1487=DIRECTION('',(-1.,0.,0.));
#1488=DIRECTION('',(0.,0.,1.));
#1489=DIRECTION('',(0.,1.,0.));
#1490=DIRECTION('',(0.,0.601815023152048,0.798635510047293));
#1491=DIRECTION('',(0.,0.,1.));
#1492=DIRECTION('',(1.,0.,0.));
#1493=DIRECTION('',(0.,1.,0.));
#1494=DIRECTION('',(1.,0.,0.));
#1495=DIRECTION('',(0.,0.,-1.));
#1496=DIRECTION('',(0.,0.601815023152048,0.798635510047293));
#1497=DIRECTION('',(-1.86592073075493E-16,-0.798635510047293,0.601815023152048));
#1498=DIRECTION('',(2.4761604433025E-16,-0.601815023152048,-0.798635510047293));
#1499=DIRECTION('',(1.25477285784941E-16,0.,-1.));
#1500=DIRECTION('',(1.,0.,1.25477285784941E-16));
#1501=DIRECTION('',(1.25477285784941E-16,0.,-1.));
#1502=DIRECTION('',(-1.,0.,-1.25477285784941E-16));
#1503=DIRECTION('',(1.25477285784941E-16,0.,-1.));
#1504=DIRECTION('',(-1.,0.,-1.25477285784941E-16));
#1505=DIRECTION('',(-1.,0.,0.));
#1506=DIRECTION('',(0.,-1.,0.));
#1507=DIRECTION('',(-1.,0.,0.));
#1508=DIRECTION('',(0.,0.,1.));
#1509=DIRECTION('',(-1.,0.,0.));
#1510=DIRECTION('',(0.,0.,1.));
#1511=DIRECTION('',(0.,0.,1.));
#1512=DIRECTION('',(1.,0.,0.));
#1513=DIRECTION('',(0.,0.,1.));
#1514=DIRECTION('',(1.,0.,0.));
#1515=DIRECTION('',(0.,0.,1.));
#1516=DIRECTION('',(1.,0.,0.));
#1517=DIRECTION('',(1.,0.,0.));
#1518=DIRECTION('',(0.,0.,-1.));
#1519=DIRECTION('',(0.,0.,1.));
#1520=DIRECTION('',(0.,-1.,0.));
#1521=DIRECTION('',(-1.,0.,0.));
#1522=DIRECTION('',(0.,0.,1.));
#1523=DIRECTION('',(0.,-1.,0.));
#1524=DIRECTION('',(0.,0.,-1.));
#1525=DIRECTION('',(0.,0.,1.));
#1526=DIRECTION('',(1.,0.,0.));
#1527=DIRECTION('',(-1.,0.,0.));
#1528=DIRECTION('',(0.,1.,0.));
#1529=DIRECTION('',(-1.,0.,0.));
#1530=DIRECTION('',(0.,0.,-1.));
#1531=DIRECTION('',(-1.,0.,0.));
#1532=DIRECTION('',(0.,-1.,0.));
#1533=DIRECTION('',(1.,0.,0.));
#1534=DIRECTION('',(-1.,0.,0.));
#1535=DIRECTION('',(0.,0.,1.));
#1536=DIRECTION('',(0.,-1.,0.));
#1537=DIRECTION('',(0.,0.,-1.));
#1538=DIRECTION('',(0.,0.,1.));
#1539=DIRECTION('',(1.,0.,0.));
#1540=DIRECTION('',(-1.,0.,0.));
#1541=DIRECTION('',(0.,1.,0.));
#1542=DIRECTION('',(-1.,0.,0.));
#1543=DIRECTION('',(0.,0.,1.));
#1544=DIRECTION('',(1.,0.,0.));
#1545=DIRECTION('',(0.,-1.,0.));
#1546=DIRECTION('',(-1.,0.,0.));
#1547=DIRECTION('',(1.,0.,0.));
#1548=DIRECTION('',(0.,0.,-1.));
#1549=DIRECTION('',(0.,0.,1.));
#1550=DIRECTION('',(0.,1.,0.));
#1551=DIRECTION('',(-1.,0.,0.));
#1552=CARTESIAN_POINT('',(0.,0.,0.));
#1553=CARTESIAN_POINT('',(0.00465223147481316,-0.011895,-0.00637873421155145));
#1554=CARTESIAN_POINT('',(0.00465223147481316,-0.011895,0.0105513381801402));
#1555=CARTESIAN_POINT('',(0.00175886121436694,-0.011895,0.0105513381801402));
#1556=CARTESIAN_POINT('',(0.0241388612143669,-0.011895,0.0105513381801402));
#1557=CARTESIAN_POINT('',(0.0241388612143669,-0.011895,0.0133507709477096));
#1558=CARTESIAN_POINT('',(0.0241388612143669,-0.011895,0.0161407709477096));
#1559=CARTESIAN_POINT('',(0.0129488612143669,-0.011895,0.0161407709477096));
#1560=CARTESIAN_POINT('',(0.00175886121436694,-0.011895,0.0161407709477096));
#1561=CARTESIAN_POINT('',(0.00175886121436694,-0.011895,0.0133507709477096));
#1562=CARTESIAN_POINT('',(0.00465223147481316,-0.011895,0.000900770947709607));
#1563=CARTESIAN_POINT('',(-0.00670113878563304,-0.011895,0.00090077094770961));
#1564=CARTESIAN_POINT('',(0.00729886121436696,-0.011895,0.000900770947709606));
#1565=CARTESIAN_POINT('',(-0.00670113878563305,-0.011895,-0.00637873421155144));
#1566=CARTESIAN_POINT('',(-0.00670113878563305,-0.011895,-0.0130992290522904));
#1567=CARTESIAN_POINT('',(0.00465223147481316,-0.011895,-0.0130992290522904));
#1568=CARTESIAN_POINT('',(0.00729886121436695,-0.011895,-0.0130992290522904));
#1569=CARTESIAN_POINT('',(0.00729886121436695,-0.011895,-0.00637873421155145));
#1570=CARTESIAN_POINT('',(0.00465223147481316,-0.011895,-0.0141892290522904));
#1571=CARTESIAN_POINT('',(0.0234788612143669,-0.011895,-0.0141892290522904));
#1572=CARTESIAN_POINT('',(0.037478861214367,-0.011895,-0.0141892290522904));
#1573=CARTESIAN_POINT('',(0.0234788612143669,-0.011895,-0.00637873421155146));
#1574=CARTESIAN_POINT('',(0.0234788612143669,-0.011895,-0.0281892290522904));
#1575=CARTESIAN_POINT('',(0.00465223147481316,-0.011895,-0.0281892290522904));
#1576=CARTESIAN_POINT('',(0.037478861214367,-0.011895,-0.0281892290522904));
#1577=CARTESIAN_POINT('',(0.037478861214367,-0.011895,-0.00637873421155145));
#1578=CARTESIAN_POINT('',(0.00465223147481316,-0.011895,0.000900770947709613));
#1579=CARTESIAN_POINT('',(0.00838886121436695,-0.011895,0.000900770947709612));
#1580=CARTESIAN_POINT('',(0.0223888612143669,-0.011895,0.000900770947709608));
#1581=CARTESIAN_POINT('',(0.00838886121436695,-0.011895,-0.00637873421155145));
#1582=CARTESIAN_POINT('',(0.00838886121436694,-0.011895,-0.0130992290522904));
#1583=CARTESIAN_POINT('',(0.00465223147481316,-0.011895,-0.0130992290522904));
#1584=CARTESIAN_POINT('',(0.0223888612143669,-0.011895,-0.0130992290522904));
#1585=CARTESIAN_POINT('',(0.0223888612143669,-0.011895,-0.00637873421155146));
#1586=CARTESIAN_POINT('',(0.00465223147481316,-0.011895,-0.0141892290522904));
#1587=CARTESIAN_POINT('',(0.00838886121436695,-0.011895,-0.0141892290522904));
#1588=CARTESIAN_POINT('',(0.0223888612143669,-0.011895,-0.0141892290522904));
#1589=CARTESIAN_POINT('',(0.00838886121436695,-0.011895,-0.00637873421155145));
#1590=CARTESIAN_POINT('',(0.00838886121436694,-0.011895,-0.0281892290522904));
#1591=CARTESIAN_POINT('',(0.00465223147481316,-0.011895,-0.0281892290522904));
#1592=CARTESIAN_POINT('',(0.0223888612143669,-0.011895,-0.0281892290522904));
#1593=CARTESIAN_POINT('',(0.0223888612143669,-0.011895,-0.00637873421155145));
#1594=CARTESIAN_POINT('',(0.00465223147481316,-0.011895,-0.0141892290522904));
#1595=CARTESIAN_POINT('',(-0.00670113878563305,-0.011895,-0.0141892290522904));
#1596=CARTESIAN_POINT('',(0.00729886121436696,-0.011895,-0.0141892290522904));
#1597=CARTESIAN_POINT('',(-0.00670113878563304,-0.011895,-0.00637873421155144));
#1598=CARTESIAN_POINT('',(-0.00670113878563305,-0.011895,-0.0281892290522904));
#1599=CARTESIAN_POINT('',(0.00465223147481316,-0.011895,-0.0281892290522904));
#1600=CARTESIAN_POINT('',(0.00729886121436695,-0.011895,-0.0281892290522904));
#1601=CARTESIAN_POINT('',(0.00729886121436696,-0.011895,-0.00637873421155145));
#1602=CARTESIAN_POINT('',(0.00465223147481316,-0.011895,0.000900770947709614));
#1603=CARTESIAN_POINT('',(0.0234788612143669,-0.011895,0.00090077094770961));
#1604=CARTESIAN_POINT('',(0.037478861214367,-0.011895,0.000900770947709606));
#1605=CARTESIAN_POINT('',(0.0234788612143669,-0.011895,-0.00637873421155146));
#1606=CARTESIAN_POINT('',(0.0234788612143669,-0.011895,-0.0130992290522904));
#1607=CARTESIAN_POINT('',(0.00465223147481316,-0.011895,-0.0130992290522904));
#1608=CARTESIAN_POINT('',(0.037478861214367,-0.011895,-0.0130992290522904));
#1609=CARTESIAN_POINT('',(0.037478861214367,-0.011895,-0.00637873421155146));
#1610=CARTESIAN_POINT('',(0.00465223147481316,-0.011895,-0.00318922905229039));
#1611=CARTESIAN_POINT('',(-0.024121138785633,-0.011895,-0.00318922905229038));
#1612=CARTESIAN_POINT('',(-0.0121211387856331,-0.011895,-0.00318922905229039));
#1613=CARTESIAN_POINT('',(-0.024121138785633,-0.011895,-0.00637873421155144));
#1614=CARTESIAN_POINT('',(-0.024121138785633,-0.011895,-0.0151892290522904));
#1615=CARTESIAN_POINT('',(0.00465223147481316,-0.011895,-0.0151892290522904));
#1616=CARTESIAN_POINT('',(-0.0121211387856331,-0.011895,-0.0151892290522904));
#1617=CARTESIAN_POINT('',(-0.0121211387856331,-0.011895,-0.00637873421155144));
#1618=CARTESIAN_POINT('',(-0.0293477685251868,-0.011895,-0.0124621912837028));
#1619=CARTESIAN_POINT('',(-0.0264477685251868,-0.011895,-0.0124621912837028));
#1620=CARTESIAN_POINT('',(-0.0322477685251869,-0.011895,-0.0124621912837028));
#1621=CARTESIAN_POINT('',(-0.0264477685251868,-0.011895,-0.00916219128370285));
#1622=CARTESIAN_POINT('',(-0.0264477685251868,-0.011895,-0.00586219128370285));
#1623=CARTESIAN_POINT('',(-0.0293477685251868,-0.011895,-0.00586219128370285));
#1624=CARTESIAN_POINT('',(-0.0322477685251869,-0.011895,-0.00586219128370285));
#1625=CARTESIAN_POINT('',(-0.0322477685251869,-0.011895,-0.000278734211551449));
#1626=CARTESIAN_POINT('',(-0.0322477685251869,-0.011895,-0.0014040160458535));
#1627=CARTESIAN_POINT('',(-0.0211368458327669,-0.011895,-0.0014040160458535));
#1628=CARTESIAN_POINT('',(-0.010025923140347,-0.011895,-0.0014040160458535));
#1629=CARTESIAN_POINT('',(-0.010025923140347,-0.011895,0.0108086248712975));
#1630=CARTESIAN_POINT('',(-0.010025923140347,-0.011895,0.0230212657884486));
#1631=CARTESIAN_POINT('',(0.00465223147481316,-0.011895,0.0230212657884486));
#1632=CARTESIAN_POINT('',(0.0357522314748131,-0.011895,0.0230212657884486));
#1633=CARTESIAN_POINT('',(0.0357522314748131,-0.011895,0.0197212657884486));
#1634=CARTESIAN_POINT('',(0.0357522314748131,-0.011895,0.0164212657884486));
#1635=CARTESIAN_POINT('',(0.0386522314748131,-0.011895,0.0164212657884486));
#1636=CARTESIAN_POINT('',(0.0415522314748131,-0.011895,0.0164212657884486));
#1637=CARTESIAN_POINT('',(0.0415522314748131,-0.011895,-0.00637873421155144));
#1638=CARTESIAN_POINT('',(0.0415522314748132,-0.011895,-0.0357787342115514));
#1639=CARTESIAN_POINT('',(0.0154022314748132,-0.011895,-0.0357787342115514));
#1640=CARTESIAN_POINT('',(0.0333101153373718,-0.011895,-0.0357787342115514));
#1641=CARTESIAN_POINT('',(0.0333101153373718,-0.011895,-0.0328787342115514));
#1642=CARTESIAN_POINT('',(0.0333101153373718,-0.011895,-0.0299787342115514));
#1643=CARTESIAN_POINT('',(0.0305601172149182,-0.011895,-0.0299787342115514));
#1644=CARTESIAN_POINT('',(0.0278101190924645,-0.011895,-0.0299787342115514));
#1645=CARTESIAN_POINT('',(0.0278101190924645,-0.011895,-0.0328787342115514));
#1646=CARTESIAN_POINT('',(0.0278101190924645,-0.011895,-0.0357787342115514));
#1647=CARTESIAN_POINT('',(0.0154022314748132,-0.011895,-0.0357787342115514));
#1648=CARTESIAN_POINT('',(-0.00935350067743818,-0.011895,-0.0357787342115514));
#1649=CARTESIAN_POINT('',(-0.00935350067743818,-0.011895,-0.0261053326890524));
#1650=CARTESIAN_POINT('',(-0.00935350067743818,-0.011895,-0.0164319311665534));
#1651=CARTESIAN_POINT('',(-0.0208006346013125,-0.011895,-0.0164319311665534));
#1652=CARTESIAN_POINT('',(-0.0322477685251869,-0.011895,-0.0164319311665534));
#1653=CARTESIAN_POINT('',(-0.0322477685251869,-0.011895,-0.000278734211551449));
#1654=CARTESIAN_POINT('',(0.00465223147481316,-0.013395,-0.00637873421155145));
#1655=CARTESIAN_POINT('',(0.00465223147481316,-0.013395,0.0085607709477096));
#1656=CARTESIAN_POINT('',(0.00175886121436694,-0.013395,0.0085607709477096));
#1657=CARTESIAN_POINT('',(0.0241388612143669,-0.013395,0.00856077094770961));
#1658=CARTESIAN_POINT('',(0.00175886121436694,-0.013395,0.0133507709477096));
#1659=CARTESIAN_POINT('',(0.00175886121436694,-0.013395,0.0161407709477096));
#1660=CARTESIAN_POINT('',(0.0129488612143669,-0.013395,0.0161407709477096));
#1661=CARTESIAN_POINT('',(0.0241388612143669,-0.013395,0.0161407709477096));
#1662=CARTESIAN_POINT('',(0.0241388612143669,-0.013395,0.0133507709477096));
#1663=CARTESIAN_POINT('',(-0.00670113878563305,-0.013395,-0.00609922905229039));
#1664=CARTESIAN_POINT('',(-0.00670113878563304,-0.013395,0.00090077094770961));
#1665=CARTESIAN_POINT('',(-0.00670113878563305,-0.013395,-0.0130992290522904));
#1666=CARTESIAN_POINT('',(0.000298861214366956,-0.013395,0.000900770947709608));
#1667=CARTESIAN_POINT('',(0.00729886121436696,-0.013395,0.000900770947709606));
#1668=CARTESIAN_POINT('',(0.00729886121436695,-0.013395,-0.00609922905229039));
#1669=CARTESIAN_POINT('',(0.00729886121436695,-0.013395,-0.0130992290522904));
#1670=CARTESIAN_POINT('',(0.00029886121436695,-0.013395,-0.0130992290522904));
#1671=CARTESIAN_POINT('',(0.0234788612143669,-0.013395,-0.00609922905229039));
#1672=CARTESIAN_POINT('',(0.0234788612143669,-0.013395,0.00090077094770961));
#1673=CARTESIAN_POINT('',(0.0234788612143669,-0.013395,-0.0130992290522904));
#1674=CARTESIAN_POINT('',(0.0304788612143669,-0.013395,0.000900770947709608));
#1675=CARTESIAN_POINT('',(0.037478861214367,-0.013395,0.000900770947709606));
#1676=CARTESIAN_POINT('',(0.037478861214367,-0.013395,-0.0060992290522904));
#1677=CARTESIAN_POINT('',(0.037478861214367,-0.013395,-0.0130992290522904));
#1678=CARTESIAN_POINT('',(0.0304788612143669,-0.013395,-0.0130992290522904));
#1679=CARTESIAN_POINT('',(0.0234788612143669,-0.013395,-0.0211892290522904));
#1680=CARTESIAN_POINT('',(0.0234788612143669,-0.013395,-0.0141892290522904));
#1681=CARTESIAN_POINT('',(0.0234788612143669,-0.013395,-0.0281892290522904));
#1682=CARTESIAN_POINT('',(0.0304788612143669,-0.013395,-0.0141892290522904));
#1683=CARTESIAN_POINT('',(0.037478861214367,-0.013395,-0.0141892290522904));
#1684=CARTESIAN_POINT('',(0.037478861214367,-0.013395,-0.0211892290522904));
#1685=CARTESIAN_POINT('',(0.037478861214367,-0.013395,-0.0281892290522904));
#1686=CARTESIAN_POINT('',(0.0304788612143669,-0.013395,-0.0281892290522904));
#1687=CARTESIAN_POINT('',(-0.00670113878563305,-0.013395,-0.0211892290522904));
#1688=CARTESIAN_POINT('',(-0.00670113878563305,-0.013395,-0.0141892290522904));
#1689=CARTESIAN_POINT('',(-0.00670113878563305,-0.013395,-0.0281892290522904));
#1690=CARTESIAN_POINT('',(0.000298861214366955,-0.013395,-0.0141892290522904));
#1691=CARTESIAN_POINT('',(0.00729886121436696,-0.013395,-0.0141892290522904));
#1692=CARTESIAN_POINT('',(0.00729886121436695,-0.013395,-0.0211892290522904));
#1693=CARTESIAN_POINT('',(0.00729886121436695,-0.013395,-0.0281892290522904));
#1694=CARTESIAN_POINT('',(0.000298861214366949,-0.013395,-0.0281892290522904));
#1695=CARTESIAN_POINT('',(0.00838886121436695,-0.013395,-0.00609922905229039));
#1696=CARTESIAN_POINT('',(0.00838886121436695,-0.013395,0.000900770947709612));
#1697=CARTESIAN_POINT('',(0.00838886121436694,-0.013395,-0.0130992290522904));
#1698=CARTESIAN_POINT('',(0.0153888612143669,-0.013395,0.00090077094770961));
#1699=CARTESIAN_POINT('',(0.0223888612143669,-0.013395,0.000900770947709608));
#1700=CARTESIAN_POINT('',(0.0223888612143669,-0.013395,-0.00609922905229039));
#1701=CARTESIAN_POINT('',(0.0223888612143669,-0.013395,-0.0130992290522904));
#1702=CARTESIAN_POINT('',(0.0153888612143669,-0.013395,-0.0130992290522904));
#1703=CARTESIAN_POINT('',(0.00838886121436695,-0.013395,-0.0211892290522904));
#1704=CARTESIAN_POINT('',(0.00838886121436695,-0.013395,-0.0141892290522904));
#1705=CARTESIAN_POINT('',(0.00838886121436694,-0.013395,-0.0281892290522904));
#1706=CARTESIAN_POINT('',(0.0153888612143669,-0.013395,-0.0141892290522904));
#1707=CARTESIAN_POINT('',(0.0223888612143669,-0.013395,-0.0141892290522904));
#1708=CARTESIAN_POINT('',(0.0223888612143669,-0.013395,-0.0211892290522904));
#1709=CARTESIAN_POINT('',(0.0223888612143669,-0.013395,-0.0281892290522904));
#1710=CARTESIAN_POINT('',(0.0153888612143669,-0.013395,-0.0281892290522904));
#1711=CARTESIAN_POINT('',(-0.0211368458327669,-0.013395,-0.0014040160458535));
#1712=CARTESIAN_POINT('',(-0.0322477685251869,-0.013395,-0.0014040160458535));
#1713=CARTESIAN_POINT('',(-0.010025923140347,-0.013395,-0.0014040160458535));
#1714=CARTESIAN_POINT('',(-0.0322477685251869,-0.013395,-0.000278734211551449));
#1715=CARTESIAN_POINT('',(-0.0322477685251869,-0.013395,-0.0164319311665534));
#1716=CARTESIAN_POINT('',(-0.0208006346013125,-0.013395,-0.0164319311665534));
#1717=CARTESIAN_POINT('',(-0.00935350067743818,-0.013395,-0.0164319311665534));
#1718=CARTESIAN_POINT('',(-0.00935350067743818,-0.013395,-0.0261053326890524));
#1719=CARTESIAN_POINT('',(-0.00935350067743818,-0.013395,-0.0357787342115514));
#1720=CARTESIAN_POINT('',(0.0154022314748132,-0.013395,-0.0357787342115514));
#1721=CARTESIAN_POINT('',(0.0415522314748132,-0.013395,-0.0357787342115514));
#1722=CARTESIAN_POINT('',(0.0415522314748131,-0.013395,-0.00637873421155144));
#1723=CARTESIAN_POINT('',(0.0415522314748131,-0.013395,0.0230212657884486));
#1724=CARTESIAN_POINT('',(0.00465223147481316,-0.013395,0.0230212657884486));
#1725=CARTESIAN_POINT('',(-0.010025923140347,-0.013395,0.0230212657884486));
#1726=CARTESIAN_POINT('',(-0.010025923140347,-0.013395,0.0108086248712975));
#1727=CARTESIAN_POINT('',(-0.024121138785633,-0.013395,-0.00918922905229039));
#1728=CARTESIAN_POINT('',(-0.024121138785633,-0.013395,-0.00318922905229038));
#1729=CARTESIAN_POINT('',(-0.024121138785633,-0.013395,-0.0151892290522904));
#1730=CARTESIAN_POINT('',(-0.0181211387856331,-0.013395,-0.00318922905229038));
#1731=CARTESIAN_POINT('',(-0.0121211387856331,-0.013395,-0.00318922905229039));
#1732=CARTESIAN_POINT('',(-0.0121211387856331,-0.013395,-0.00918922905229039));
#1733=CARTESIAN_POINT('',(-0.0121211387856331,-0.013395,-0.0151892290522904));
#1734=CARTESIAN_POINT('',(-0.0181211387856331,-0.013395,-0.0151892290522904));
#1735=CARTESIAN_POINT('',(-0.0211368458327669,-0.011895,-0.0014040160458535));
#1736=CARTESIAN_POINT('',(-0.010025923140347,-0.011895,-0.0014040160458535));
#1737=CARTESIAN_POINT('',(-0.0322477685251869,-0.011895,-0.0014040160458535));
#1738=CARTESIAN_POINT('',(-0.0322477685251869,-0.011895,-0.000278734211551449));
#1739=CARTESIAN_POINT('',(-0.0322477685251869,-0.008645,-0.0124621912837028));
#1740=CARTESIAN_POINT('',(-0.0322477685251869,-0.008645,-0.0124621912837028));
#1741=CARTESIAN_POINT('',(-0.0322477685251869,-0.011895,-0.0164319311665534));
#1742=CARTESIAN_POINT('',(-0.0322477685251869,-0.008645,-0.00586219128370285));
#1743=CARTESIAN_POINT('',(-0.0322477685251869,-0.008645,-0.00586219128370285));
#1744=CARTESIAN_POINT('',(-0.0322477685251869,-0.008645,-0.000278734211551449));
#1745=CARTESIAN_POINT('',(-0.0322477685251869,-0.010966707020998,-0.00920090824365616));
#1746=CARTESIAN_POINT('',(-0.0322477685251869,-0.010966707020998,-0.00775090824365616));
#1747=CARTESIAN_POINT('',(-0.0208006346013125,-0.011895,-0.0164319311665534));
#1748=CARTESIAN_POINT('',(-0.00935350067743818,-0.011895,-0.0164319311665534));
#1749=CARTESIAN_POINT('',(-0.00935350067743818,-0.011895,-0.0261053326890524));
#1750=CARTESIAN_POINT('',(-0.00935350067743818,-0.011895,-0.0357787342115514));
#1751=CARTESIAN_POINT('',(0.0154022314748132,-0.011895,-0.0357787342115514));
#1752=CARTESIAN_POINT('',(0.0333101153373718,-0.008645,-0.0357787342115514));
#1753=CARTESIAN_POINT('',(0.0333101153373718,-0.008645,-0.0357787342115514));
#1754=CARTESIAN_POINT('',(0.0415522314748132,-0.011895,-0.0357787342115514));
#1755=CARTESIAN_POINT('',(0.0278101190924645,-0.008645,-0.0357787342115514));
#1756=CARTESIAN_POINT('',(0.0278101190924645,-0.008645,-0.0357787342115514));
#1757=CARTESIAN_POINT('',(0.0154022314748132,-0.008645,-0.0357787342115514));
#1758=CARTESIAN_POINT('',(0.0305601172149182,-0.01102,-0.0357787342115514));
#1759=CARTESIAN_POINT('',(0.0291101172149182,-0.01102,-0.0357787342115514));
#1760=CARTESIAN_POINT('',(0.0415522314748131,-0.011895,-0.00637873421155144));
#1761=CARTESIAN_POINT('',(0.0415522314748131,-0.008645,0.0164212657884486));
#1762=CARTESIAN_POINT('',(0.0415522314748131,-0.008645,0.0164212657884486));
#1763=CARTESIAN_POINT('',(0.0415522314748131,-0.008645,-0.00637873421155144));
#1764=CARTESIAN_POINT('',(0.0415522314748131,-0.008645,0.0230212657884486));
#1765=CARTESIAN_POINT('',(0.0415522314748131,-0.011895,0.0230212657884486));
#1766=CARTESIAN_POINT('',(0.00465223147481316,-0.011895,0.0230212657884486));
#1767=CARTESIAN_POINT('',(0.0386522314748131,-0.01102,0.0230212657884486));
#1768=CARTESIAN_POINT('',(0.0401022314748131,-0.01102,0.0230212657884486));
#1769=CARTESIAN_POINT('',(0.00465223147481316,-0.008645,0.0230212657884486));
#1770=CARTESIAN_POINT('',(0.0357522314748131,-0.008645,0.0230212657884486));
#1771=CARTESIAN_POINT('',(0.0357522314748131,-0.008645,0.0230212657884486));
#1772=CARTESIAN_POINT('',(-0.010025923140347,-0.011895,0.0230212657884486));
#1773=CARTESIAN_POINT('',(-0.010025923140347,-0.011895,0.0108086248712975));
#1774=CARTESIAN_POINT('',(0.0153888612143669,0.011605,-0.0141892290522904));
#1775=CARTESIAN_POINT('',(0.0223888612143669,0.011605,-0.0141892290522904));
#1776=CARTESIAN_POINT('',(0.00838886121436695,0.011605,-0.0141892290522904));
#1777=CARTESIAN_POINT('',(0.00838886121436695,0.011605,-0.0211892290522904));
#1778=CARTESIAN_POINT('',(0.00838886121436694,0.011605,-0.0281892290522904));
#1779=CARTESIAN_POINT('',(0.0153888612143669,0.011605,-0.0281892290522904));
#1780=CARTESIAN_POINT('',(0.0223888612143669,0.011605,-0.0281892290522904));
#1781=CARTESIAN_POINT('',(0.0223888612143669,0.011605,-0.0211892290522904));
#1782=CARTESIAN_POINT('',(0.0153888612143669,0.011605,0.00090077094770961));
#1783=CARTESIAN_POINT('',(0.0223888612143669,0.011605,0.000900770947709608));
#1784=CARTESIAN_POINT('',(0.00838886121436695,0.011605,0.000900770947709612));
#1785=CARTESIAN_POINT('',(0.00838886121436695,0.011605,-0.00609922905229039));
#1786=CARTESIAN_POINT('',(0.00838886121436694,0.011605,-0.0130992290522904));
#1787=CARTESIAN_POINT('',(0.0153888612143669,0.011605,-0.0130992290522904));
#1788=CARTESIAN_POINT('',(0.0223888612143669,0.011605,-0.0130992290522904));
#1789=CARTESIAN_POINT('',(0.0223888612143669,0.011605,-0.00609922905229039));
#1790=CARTESIAN_POINT('',(0.000298861214366955,0.011605,-0.0141892290522904));
#1791=CARTESIAN_POINT('',(0.00729886121436696,0.011605,-0.0141892290522904));
#1792=CARTESIAN_POINT('',(-0.00670113878563305,0.011605,-0.0141892290522904));
#1793=CARTESIAN_POINT('',(-0.00670113878563305,0.011605,-0.0211892290522904));
#1794=CARTESIAN_POINT('',(-0.00670113878563305,0.011605,-0.0281892290522904));
#1795=CARTESIAN_POINT('',(0.000298861214366949,0.011605,-0.0281892290522904));
#1796=CARTESIAN_POINT('',(0.00729886121436695,0.011605,-0.0281892290522904));
#1797=CARTESIAN_POINT('',(0.00729886121436695,0.011605,-0.0211892290522904));
#1798=CARTESIAN_POINT('',(0.0304788612143669,0.011605,-0.0141892290522904));
#1799=CARTESIAN_POINT('',(0.037478861214367,0.011605,-0.0141892290522904));
#1800=CARTESIAN_POINT('',(0.0234788612143669,0.011605,-0.0141892290522904));
#1801=CARTESIAN_POINT('',(0.0234788612143669,0.011605,-0.0211892290522904));
#1802=CARTESIAN_POINT('',(0.0234788612143669,0.011605,-0.0281892290522904));
#1803=CARTESIAN_POINT('',(0.0304788612143669,0.011605,-0.0281892290522904));
#1804=CARTESIAN_POINT('',(0.037478861214367,0.011605,-0.0281892290522904));
#1805=CARTESIAN_POINT('',(0.037478861214367,0.011605,-0.0211892290522904));
#1806=CARTESIAN_POINT('',(0.0304788612143669,0.011605,0.000900770947709608));
#1807=CARTESIAN_POINT('',(0.037478861214367,0.011605,0.000900770947709606));
#1808=CARTESIAN_POINT('',(0.0234788612143669,0.011605,0.00090077094770961));
#1809=CARTESIAN_POINT('',(0.0234788612143669,0.011605,-0.00609922905229039));
#1810=CARTESIAN_POINT('',(0.0234788612143669,0.011605,-0.0130992290522904));
#1811=CARTESIAN_POINT('',(0.0304788612143669,0.011605,-0.0130992290522904));
#1812=CARTESIAN_POINT('',(0.037478861214367,0.011605,-0.0130992290522904));
#1813=CARTESIAN_POINT('',(0.037478861214367,0.011605,-0.0060992290522904));
#1814=CARTESIAN_POINT('',(0.000298861214366956,0.011605,0.000900770947709608));
#1815=CARTESIAN_POINT('',(0.00729886121436696,0.011605,0.000900770947709606));
#1816=CARTESIAN_POINT('',(-0.00670113878563304,0.011605,0.00090077094770961));
#1817=CARTESIAN_POINT('',(-0.00670113878563305,0.011605,-0.00609922905229039));
#1818=CARTESIAN_POINT('',(-0.00670113878563305,0.011605,-0.0130992290522904));
#1819=CARTESIAN_POINT('',(0.00029886121436695,0.011605,-0.0130992290522904));
#1820=CARTESIAN_POINT('',(0.00729886121436695,0.011605,-0.0130992290522904));
#1821=CARTESIAN_POINT('',(0.00729886121436695,0.011605,-0.00609922905229039));
#1822=CARTESIAN_POINT('',(-0.0181211387856331,0.011605,-0.00318922905229038));
#1823=CARTESIAN_POINT('',(-0.0121211387856331,0.011605,-0.00318922905229039));
#1824=CARTESIAN_POINT('',(-0.024121138785633,0.011605,-0.00318922905229038));
#1825=CARTESIAN_POINT('',(-0.024121138785633,0.011605,-0.00918922905229039));
#1826=CARTESIAN_POINT('',(-0.024121138785633,0.011605,-0.0151892290522904));
#1827=CARTESIAN_POINT('',(-0.0181211387856331,0.011605,-0.0151892290522904));
#1828=CARTESIAN_POINT('',(-0.0121211387856331,0.011605,-0.0151892290522904));
#1829=CARTESIAN_POINT('',(-0.0121211387856331,0.011605,-0.00918922905229039));
#1830=CARTESIAN_POINT('',(0.00175886121436694,-0.013395,0.0133507709477096));
#1831=CARTESIAN_POINT('',(0.00175886121436694,-0.013395,0.0161407709477096));
#1832=CARTESIAN_POINT('',(0.00175886121436694,-0.0110927782382277,0.0116159224148913));
#1833=CARTESIAN_POINT('',(0.0129488612143669,-0.013395,0.0161407709477096));
#1834=CARTESIAN_POINT('',(0.0241388612143669,-0.013395,0.0161407709477096));
#1835=CARTESIAN_POINT('',(0.0241388612143669,-0.013395,0.0133507709477096));
#1836=CARTESIAN_POINT('',(0.0241388612143669,-0.013395,0.0085607709477096));
#1837=CARTESIAN_POINT('',(0.00465223147481316,-0.013395,0.0085607709477096));
#1838=CARTESIAN_POINT('',(0.0154022314748131,-0.0066975,-0.0318787342115514));
#1839=CARTESIAN_POINT('',(0.0305601172149182,-0.01102,-0.0318787342115514));
#1840=CARTESIAN_POINT('',(0.0291101172149182,-0.01102,-0.0318787342115514));
#1841=CARTESIAN_POINT('',(0.0305601172149182,-0.01102,-0.0318787342115514));
#1842=CARTESIAN_POINT('',(-0.0283477685251868,-0.0066975,-0.000278734211551449));
#1843=CARTESIAN_POINT('',(-0.0283477685251868,-0.010966707020998,-0.00920090824365616));
#1844=CARTESIAN_POINT('',(-0.0283477685251868,-0.010966707020998,-0.00775090824365616));
#1845=CARTESIAN_POINT('',(-0.0283477685251868,-0.010966707020998,-0.00920090824365616));
#1846=CARTESIAN_POINT('',(0.00465223147481316,-0.0066975,0.0191212657884486));
#1847=CARTESIAN_POINT('',(0.0386522314748131,-0.01102,0.0191212657884486));
#1848=CARTESIAN_POINT('',(0.0401022314748131,-0.01102,0.0191212657884486));
#1849=CARTESIAN_POINT('',(0.0386522314748131,-0.01102,0.0191212657884486));
#1850=CARTESIAN_POINT('',(0.0333101153373718,-0.008645,-0.0328787342115514));
#1851=CARTESIAN_POINT('',(0.0333101153373718,-0.008645,-0.0328787342115514));
#1852=CARTESIAN_POINT('',(0.0333101153373718,-0.008645,-0.0299787342115514));
#1853=CARTESIAN_POINT('',(0.0333101153373718,-0.008645,-0.0299787342115514));
#1854=CARTESIAN_POINT('',(0.0278101190924645,-0.008645,-0.0328787342115514));
#1855=CARTESIAN_POINT('',(0.0278101190924645,-0.008645,-0.0299787342115514));
#1856=CARTESIAN_POINT('',(0.0278101190924645,-0.008645,-0.0299787342115514));
#1857=CARTESIAN_POINT('',(0.0278101190924645,-0.008645,-0.0328787342115514));
#1858=CARTESIAN_POINT('',(0.0305601172149182,-0.008645,-0.0299787342115514));
#1859=CARTESIAN_POINT('',(0.0305601172149182,-0.008645,-0.0299787342115514));
#1860=CARTESIAN_POINT('',(0.00465223147481318,-0.008645,-0.00637873421155145));
#1861=CARTESIAN_POINT('',(-0.0293477685251868,-0.008645,-0.00586219128370285));
#1862=CARTESIAN_POINT('',(-0.0264477685251868,-0.008645,-0.00586219128370285));
#1863=CARTESIAN_POINT('',(-0.0264477685251868,-0.008645,-0.00586219128370285));
#1864=CARTESIAN_POINT('',(-0.0293477685251868,-0.008645,-0.00586219128370285));
#1865=CARTESIAN_POINT('',(-0.0264477685251868,-0.008645,-0.00916219128370285));
#1866=CARTESIAN_POINT('',(-0.0264477685251868,-0.008645,-0.0124621912837028));
#1867=CARTESIAN_POINT('',(-0.0264477685251868,-0.008645,-0.0124621912837028));
#1868=CARTESIAN_POINT('',(-0.0264477685251868,-0.008645,-0.00916219128370285));
#1869=CARTESIAN_POINT('',(-0.0293477685251868,-0.008645,-0.0124621912837028));
#1870=CARTESIAN_POINT('',(-0.0293477685251868,-0.008645,-0.0124621912837028));
#1871=CARTESIAN_POINT('',(0.00465223147481318,-0.008645,-0.00637873421155145));
#1872=CARTESIAN_POINT('',(0.0386522314748131,-0.008645,0.0164212657884486));
#1873=CARTESIAN_POINT('',(0.0357522314748131,-0.008645,0.0164212657884486));
#1874=CARTESIAN_POINT('',(0.0357522314748131,-0.008645,0.0164212657884486));
#1875=CARTESIAN_POINT('',(0.0386522314748131,-0.008645,0.0164212657884486));
#1876=CARTESIAN_POINT('',(0.0357522314748131,-0.008645,0.0197212657884486));
#1877=CARTESIAN_POINT('',(0.0357522314748131,-0.008645,0.0197212657884486));
#1878=CARTESIAN_POINT('',(0.00465223147481318,-0.008645,-0.00637873421155145));
#1879=MECHANICAL_DESIGN_GEOMETRIC_PRESENTATION_REPRESENTATION('',(#1190),
#1880);
#1880=(
GEOMETRIC_REPRESENTATION_CONTEXT(3)
GLOBAL_UNCERTAINTY_ASSIGNED_CONTEXT((#1881))
GLOBAL_UNIT_ASSIGNED_CONTEXT((#1884,#1883,#1882))
REPRESENTATION_CONTEXT('Top Plate','TOP_LEVEL_ASSEMBLY_PART')
);
#1881=UNCERTAINTY_MEASURE_WITH_UNIT(LENGTH_MEASURE(1.E-8),#1884,
'DISTANCE_ACCURACY_VALUE','Maximum Tolerance applied to model');
#1882=(
NAMED_UNIT(*)
SI_UNIT($,.STERADIAN.)
SOLID_ANGLE_UNIT()
);
#1883=(
NAMED_UNIT(*)
PLANE_ANGLE_UNIT()
SI_UNIT($,.RADIAN.)
);
#1884=(
LENGTH_UNIT()
NAMED_UNIT(*)
SI_UNIT($,.METRE.)
);
#1885=PRODUCT_DEFINITION_SHAPE('','',#1886);
#1886=PRODUCT_DEFINITION('','',#1888,#1887);
#1887=PRODUCT_DEFINITION_CONTEXT('',#1894,'design');
#1888=PRODUCT_DEFINITION_FORMATION_WITH_SPECIFIED_SOURCE('','',#1890,
 .NOT_KNOWN.);
#1889=PRODUCT_RELATED_PRODUCT_CATEGORY('','',(#1890));
#1890=PRODUCT('Top Plate','Top Plate','Top Plate',(#1892));
#1891=PRODUCT_CATEGORY('','');
#1892=PRODUCT_CONTEXT('',#1894,'mechanical');
#1893=APPLICATION_PROTOCOL_DEFINITION('international standard',
'ap242_managed_model_based_3d_engineering',2020,#1894);
#1894=APPLICATION_CONTEXT('managed model based 3d engineering');
ENDSEC;
END-ISO-10303-21;
